<svg width="151" height="161" viewBox="0 0 151 161" fill="none" xmlns="http://www.w3.org/2000/svg">
<path d="M150.394 124.734L134.323 97.9006C133.838 97.0932 132.967 96.5997 132.027 96.5997H112.784C113.101 95.7408 113.268 94.8328 113.277 93.9164C113.262 91.7074 112.348 89.6003 110.745 88.0835C109.142 86.5658 106.99 85.7703 104.788 85.8794C103.943 83.4679 102.006 81.6004 99.568 80.8494C97.1296 80.0984 94.4799 80.5511 92.4291 82.0701C90.3772 83.589 89.1671 85.9945 89.1695 88.5497H94.5267C94.5267 87.0678 95.7261 85.8663 97.2053 85.8663C98.6845 85.8663 99.8839 87.0678 99.8839 88.5497C99.8815 88.6994 99.8683 88.8491 99.8468 88.9977C99.7308 90.0123 100.201 91.0054 101.057 91.5588C101.914 92.1111 103.011 92.1291 103.886 91.6032C104.295 91.3576 104.764 91.2294 105.241 91.233C106.72 91.233 107.92 92.4345 107.92 93.9164C107.92 95.3982 106.72 96.5997 105.241 96.5997H46.3121C44.8329 96.5997 43.6335 95.3982 43.6335 93.9164C43.6335 92.4345 44.8329 91.233 46.3121 91.233C46.7892 91.2294 47.258 91.3576 47.6669 91.6032C48.5423 92.129 49.6388 92.1111 50.4962 91.5588C51.3524 91.0054 51.8223 90.0123 51.7063 88.9977C51.6848 88.8491 51.6717 88.6994 51.6693 88.5497C51.6693 87.0678 52.8687 85.8663 54.3479 85.8663C55.8271 85.8663 57.0265 87.0678 57.0265 88.5497H62.3836C62.386 85.9945 61.1759 83.589 59.124 82.0701C57.0732 80.5511 54.4235 80.0983 51.9852 80.8494C49.5469 81.6005 47.6098 83.4681 46.7655 85.8794C44.5628 85.7715 42.4127 86.5682 40.8104 88.0847C39.2082 89.6013 38.2933 91.7071 38.2765 93.9163C38.2849 94.8327 38.4523 95.7408 38.7692 96.5997H19.5265C18.5926 96.6105 17.734 97.1148 17.2689 97.9258L17.2318 97.9018L1.16026 124.735L1.15907 124.734C0.66281 125.563 0.648453 126.596 1.12439 127.438C1.59913 128.279 2.48998 128.8 3.45501 128.8H16.848V158.317C16.848 159.028 17.1302 159.711 17.6324 160.214C18.1346 160.717 18.8162 161 19.5265 161H132.027C132.738 161 133.419 160.717 133.921 160.214C134.424 159.711 134.706 159.028 134.706 158.317V128.8H148.099C149.064 128.8 149.955 128.279 150.429 127.438C150.905 126.596 150.891 125.563 150.395 124.734L150.394 124.734ZM8.18401 123.433L16.8464 108.969V123.433H8.18401ZM54.3476 155.633H22.2045V101.966H54.3476V155.633ZM129.348 155.633H59.7048V108.971L70.8018 127.499V127.5C71.2861 128.308 72.1578 128.801 73.0977 128.801H129.348V155.633ZM74.613 123.433L61.7558 101.966H130.508L143.366 123.433H74.613Z" fill="white"/>
<path d="M113.277 144.901H123.991V150.267H113.277V144.901Z" fill="white"/>
<path d="M102.562 144.901H107.919V150.267H102.562V144.901Z" fill="white"/>
<path d="M52.8537 61.717H62.3818C63.3971 61.717 64.325 61.1432 64.7794 60.2328L66.1725 57.4416L67.8765 62.5639L67.8753 62.5651C68.24 63.6612 69.2637 64.4003 70.4176 64.4003H81.1319C82.2859 64.4003 83.3095 63.6612 83.6742 62.5651L85.3782 57.4428L86.7713 60.234L86.7701 60.2328C87.2246 61.1432 88.1525 61.717 89.1677 61.717H98.6958C100.451 61.717 102.095 60.8545 103.096 59.4098C104.096 57.9639 104.327 56.1192 103.712 54.4718L98.336 40.1136H98.3372C97.8207 38.748 96.9441 37.5477 95.8009 36.6409C94.6589 35.7341 93.2922 35.1555 91.8464 34.9638V19.2793C91.856 16.5936 91.0524 13.969 89.5397 11.7503C81.5183 0 77.1943 0 75.7748 0C74.3553 0 70.0313 0 62.0099 11.7481C60.4984 13.9667 59.6937 16.5938 59.7032 19.2796V34.9641C58.2587 35.1546 56.8919 35.7332 55.7499 36.6388C54.6067 37.5444 53.7302 38.7436 53.2124 40.1078L47.8372 54.4722C47.2226 56.1193 47.4534 57.9642 48.453 59.4101C49.4539 60.8548 51.0981 61.7173 52.8536 61.7173L52.8537 61.717ZM72.3489 59.0336L71.4545 56.3503H80.0954L79.201 59.0336H72.3489ZM93.3197 41.9921L98.6958 56.3503H90.8226L90.5894 55.8831C91.3607 55.4099 91.8355 54.5726 91.8462 53.6669V40.4885C92.523 40.7664 93.0552 41.3091 93.3195 41.9919L93.3197 41.9921ZM65.0607 19.2797C65.0523 17.6756 65.5295 16.1075 66.4299 14.7802C71.5156 7.33402 74.7681 5.36706 75.775 5.36706C76.7818 5.36706 80.0344 7.33405 85.12 14.7802C86.0205 16.1075 86.4976 17.6756 86.4892 19.2797V50.983H78.4535V34.8829H73.0963V50.983H65.0605L65.0607 19.2797ZM58.228 41.9912V41.9924C58.4947 41.3107 59.028 40.7681 59.7036 40.489V53.6674C59.7144 54.5731 60.1891 55.4104 60.9604 55.8836L60.7272 56.3508H52.854L58.228 41.9912Z" fill="white"/>
<path d="M75.7763 26.8334C77.9072 26.8334 79.9521 25.9853 81.4586 24.4759C82.965 22.9665 83.8119 20.9179 83.8119 18.7835C83.8119 16.6491 82.9653 14.6003 81.4586 13.0912C79.9519 11.582 77.9069 10.7336 75.7763 10.7336C73.6457 10.7336 71.6004 11.5818 70.094 13.0912C68.5876 14.6005 67.7407 16.6491 67.7407 18.7835C67.7407 20.9179 68.5873 22.9668 70.094 24.4759C71.6007 25.985 73.6457 26.8334 75.7763 26.8334ZM75.7763 16.1C76.8597 16.1 77.8367 16.7541 78.2504 17.7567C78.6653 18.7594 78.4369 19.913 77.6704 20.6809C76.9039 21.4488 75.7524 21.6775 74.7515 21.2619C73.7506 20.8474 73.0977 19.8687 73.0977 18.7834C73.0977 17.3015 74.2971 16.1 75.7763 16.1Z" fill="white"/>
<path d="M75.7763 67.0837C72.9351 67.0837 70.2097 68.2146 68.1997 70.2271C66.1908 72.2408 65.0619 74.9709 65.0619 77.8171C65.0619 83.3442 69.2353 93.9172 75.7763 93.9172C82.3173 93.9172 86.4907 83.3442 86.4907 77.8171C86.4907 74.9709 85.3618 72.2407 83.3529 70.2271C81.3427 68.2146 78.6174 67.0837 75.7763 67.0837ZM75.7763 88.5505C73.7721 88.5505 70.4191 81.8289 70.4191 77.8171C70.4191 75.8992 71.4403 74.1276 73.0977 73.1693C74.7551 72.2109 76.7975 72.2109 78.4549 73.1693C80.1122 74.1276 81.1335 75.8993 81.1335 77.8171C81.1335 81.8289 77.7805 88.5505 75.7763 88.5505Z" fill="white"/>
<path d="M110.598 59.0334H115.955V69.7668H110.598V59.0334Z" fill="white"/>
<path d="M110.598 75.1335H115.955V80.5002H110.598V75.1335Z" fill="white"/>
<path d="M121.312 64.4001H126.669V75.1335H121.312V64.4001Z" fill="white"/>
<path d="M121.312 80.5002H126.669V85.8669H121.312V80.5002Z" fill="white"/>
<path d="M35.5975 59.0334H40.9546V69.7668H35.5975V59.0334Z" fill="white"/>
<path d="M35.5975 75.1335H40.9546V80.5002H35.5975V75.1335Z" fill="white"/>
<path d="M24.8831 64.4001H30.2403V75.1335H24.8831V64.4001Z" fill="white"/>
<path d="M24.8831 80.5002H30.2403V85.8669H24.8831V80.5002Z" fill="white"/>
<path d="M133.922 17.9979L130.133 14.2029C119.872 24.8406 113.873 38.886 113.277 53.668H118.635C119.283 40.323 124.711 27.6598 133.922 17.9994L133.922 17.9979Z" fill="white"/>
<path d="M132.027 59.0336C132.675 45.6887 138.103 33.0254 147.314 23.3651L143.526 19.5701C133.264 30.2078 127.265 44.2532 126.67 59.0352L132.027 59.0336Z" fill="white"/>
<path d="M38.276 53.667C37.6805 38.8859 31.6812 24.8402 21.4202 14.2019L17.6319 17.9969C26.8218 27.6726 32.2445 40.3272 32.9192 53.6655L38.276 53.667Z" fill="white"/>
<path d="M24.8831 59.0337C24.2876 44.2526 18.2883 30.2069 8.02727 19.5686L4.23898 23.3636C13.4288 33.0393 18.8515 45.6939 19.5262 59.0322L24.8831 59.0337Z" fill="white"/>
</svg>
