<svg width="130" height="140" viewBox="0 0 130 140" fill="none" xmlns="http://www.w3.org/2000/svg">
<path d="M129.668 108.465L115.74 85.1311C115.32 84.4291 114.564 83.9999 113.75 83.9999H97.0728C97.3474 83.253 97.4925 82.4634 97.4998 81.6665C97.4873 79.7457 96.6945 77.9135 95.3058 76.5945C93.9161 75.2747 92.0515 74.5831 90.1427 74.6779C89.411 72.581 87.7321 70.957 85.6189 70.304C83.5057 69.6509 81.2092 70.0446 79.4319 71.3654C77.6535 72.6863 76.6048 74.778 76.6069 76.9999H81.2498C81.2498 75.7113 82.2893 74.6665 83.5712 74.6665C84.8532 74.6665 85.8927 75.7113 85.8927 76.9999C85.8906 77.1301 85.8792 77.2603 85.8606 77.3894C85.76 78.2717 86.1673 79.1353 86.9094 79.6165C87.6524 80.0967 88.6028 80.1124 89.3614 79.6551C89.7158 79.4415 90.1221 79.3301 90.5356 79.3332C91.8176 79.3332 92.857 80.378 92.857 81.6665C92.857 82.9551 91.8176 83.9999 90.5356 83.9999H39.4638C38.1818 83.9999 37.1424 82.9551 37.1424 81.6665C37.1424 80.378 38.1818 79.3332 39.4638 79.3332C39.8773 79.3301 40.2836 79.4415 40.638 79.6551C41.3966 80.1124 42.347 80.0967 43.09 79.6165C43.8321 79.1353 44.2394 78.2717 44.1388 77.3894C44.1202 77.2603 44.1088 77.1301 44.1067 76.9999C44.1067 75.7113 45.1462 74.6665 46.4281 74.6665C47.7101 74.6665 48.7496 75.7113 48.7496 76.9999H53.3925C53.3946 74.778 52.3458 72.6862 50.5675 71.3654C48.7901 70.0446 46.4937 69.6508 44.3805 70.304C42.2673 70.9571 40.5885 72.5811 39.8567 74.6779C37.9478 74.5841 36.0843 75.2768 34.6957 76.5956C33.3071 77.9143 32.5142 79.7454 32.4997 81.6665C32.5069 82.4634 32.652 83.253 32.9267 83.9999H16.2497C15.4403 84.0092 14.6962 84.4478 14.293 85.153L14.2609 85.1321L0.332228 108.466L0.331192 108.465C-0.0988987 109.185 -0.111342 110.083 0.301138 110.816C0.712577 111.547 1.48465 112 2.32101 112H13.9282V137.667C13.9282 138.285 14.1728 138.879 14.6081 139.317C15.0433 139.754 15.6341 140 16.2497 140H113.75C114.366 140 114.957 139.754 115.392 139.317C115.827 138.879 116.072 138.285 116.072 137.667V112H127.679C128.515 112 129.287 111.547 129.699 110.816C130.111 110.083 130.099 109.185 129.669 108.465L129.668 108.465ZM6.41947 107.333L13.9269 94.7562V107.333H6.41947ZM46.4279 135.333H18.5706V88.6666H46.4279V135.333ZM111.428 135.333H51.0708V94.7573L60.6882 110.869V110.87C61.1079 111.572 61.8634 112.001 62.678 112.001H111.428V135.333ZM63.9913 107.333L52.8484 88.6666H112.434L123.577 107.333H63.9913Z" fill="white"/>
<path d="M97.4997 126H106.785V130.667H97.4997V126Z" fill="white"/>
<path d="M88.2139 126H92.8568V130.667H88.2139V126Z" fill="white"/>
<path d="M45.1332 53.6669H53.3909C54.2708 53.6669 55.075 53.168 55.4688 52.3763L56.6762 49.9492L58.153 54.4034L58.1519 54.4044C58.468 55.3575 59.3552 56.0003 60.3552 56.0003H69.641C70.6411 56.0003 71.5282 55.3575 71.8443 54.4044L73.3211 49.9503L74.5285 52.3774L74.5275 52.3763C74.9213 53.168 75.7255 53.6669 76.6054 53.6669H84.8631C86.3844 53.6669 87.8093 52.9169 88.6769 51.6607C89.5433 50.4034 89.7433 48.7993 89.2106 47.3668L84.5512 34.8814H84.5523C84.1046 33.6939 83.3449 32.6502 82.3541 31.8617C81.3644 31.0731 80.1799 30.57 78.9269 30.4033V16.7646C78.9352 14.4292 78.2387 12.147 76.9278 10.2176C69.9759 0 66.2284 0 64.9982 0C63.7679 0 60.0205 0 53.0686 10.2158C51.7587 12.145 51.0612 14.4294 51.0695 16.7649V30.4036C49.8175 30.5692 48.633 31.0723 47.6433 31.8598C46.6525 32.6473 45.8929 33.6901 45.4441 34.8764L40.7856 47.3671C40.2529 48.7994 40.4529 50.4036 41.3193 51.661C42.1867 52.9172 43.6117 53.6672 45.1331 53.6672L45.1332 53.6669ZM62.0291 51.3336L61.2539 49.0003H68.7427L67.9675 51.3336H62.0291ZM80.2037 36.5149L84.8631 49.0003H78.0396L77.8375 48.594C78.506 48.1825 78.9174 47.4544 78.9267 46.6669V35.2074C79.5133 35.4491 79.9745 35.9209 80.2035 36.5147L80.2037 36.5149ZM55.7126 16.7649C55.7054 15.3701 56.1189 14.0065 56.8993 12.8524C61.3068 6.37741 64.1257 4.66701 64.9983 4.66701C65.8709 4.66701 68.6898 6.37744 73.0974 12.8524C73.8778 14.0065 74.2913 15.3701 74.284 16.7649V44.333H67.3197V30.333H62.6768V44.333H55.7125L55.7126 16.7649ZM49.7909 36.5141V36.5151C50.0221 35.9224 50.4843 35.4505 51.0698 35.2078V46.6673C51.0791 47.4548 51.4906 48.183 52.159 48.5944L51.9569 49.0007H45.1335L49.7909 36.5141Z" fill="white"/>
<path d="M64.9995 23.3333C66.8462 23.3333 68.6185 22.5958 69.9241 21.2833C71.2297 19.9708 71.9637 18.1894 71.9637 16.3334C71.9637 14.4774 71.2299 12.6958 69.9241 11.3835C68.6183 10.0712 66.846 9.3335 64.9995 9.3335C63.1529 9.3335 61.3804 10.071 60.0748 11.3835C58.7692 12.696 58.0352 14.4774 58.0352 16.3334C58.0352 18.1894 58.769 19.971 60.0748 21.2833C61.3806 22.5955 63.1529 23.3333 64.9995 23.3333ZM64.9995 13.9999C65.9384 13.9999 66.7851 14.5687 67.1437 15.4405C67.5033 16.3124 67.3053 17.3155 66.641 17.9833C65.9767 18.651 64.9787 18.8499 64.1113 18.4885C63.2439 18.128 62.678 17.277 62.678 16.3333C62.678 15.0447 63.7175 13.9999 64.9995 13.9999Z" fill="white"/>
<path d="M64.9995 58.3335C62.5371 58.3335 60.1751 59.3168 58.4331 61.0668C56.692 62.8179 55.7137 65.1919 55.7137 67.6669C55.7137 72.473 59.3306 81.6669 64.9995 81.6669C70.6683 81.6669 74.2852 72.473 74.2852 67.6669C74.2852 65.1919 73.3069 62.8178 71.5658 61.0668C69.8237 59.3168 67.4618 58.3335 64.9995 58.3335ZM64.9995 77.0002C63.2625 77.0002 60.3566 71.1554 60.3566 67.6669C60.3566 65.9992 61.2416 64.4586 62.678 63.6252C64.1144 62.7919 65.8845 62.7919 67.3209 63.6252C68.7573 64.4586 69.6423 65.9992 69.6423 67.6669C69.6423 71.1554 66.7364 77.0002 64.9995 77.0002Z" fill="white"/>
<path d="M95.1782 51.3335H99.8211V60.6669H95.1782V51.3335Z" fill="white"/>
<path d="M95.1782 65.3335H99.8211V70.0002H95.1782V65.3335Z" fill="white"/>
<path d="M104.464 56.0002H109.107V65.3336H104.464V56.0002Z" fill="white"/>
<path d="M104.464 70.0002H109.107V74.6669H104.464V70.0002Z" fill="white"/>
<path d="M30.1778 51.3335H34.8207V60.6669H30.1778V51.3335Z" fill="white"/>
<path d="M30.1778 65.3335H34.8207V70.0002H30.1778V65.3335Z" fill="white"/>
<path d="M20.892 56.0002H25.5349V65.3336H20.892V56.0002Z" fill="white"/>
<path d="M20.892 70.0002H25.5349V74.6669H20.892V70.0002Z" fill="white"/>
<path d="M115.392 15.6504L112.109 12.3503C103.216 21.6005 98.0165 33.8139 97.5005 46.6678H102.143C102.705 35.0635 107.409 24.052 115.392 15.6517L115.392 15.6504Z" fill="white"/>
<path d="M113.75 51.3335C114.312 39.7292 119.016 28.7176 126.999 20.3173L123.716 17.0173C114.822 26.2675 109.623 38.4809 109.107 51.3348L113.75 51.3335Z" fill="white"/>
<path d="M32.4992 46.6671C31.9831 33.814 26.7837 21.6003 17.8909 12.3496L14.6077 15.6496C22.5722 24.0633 27.2719 35.0673 27.8566 46.6657L32.4992 46.6671Z" fill="white"/>
<path d="M20.892 51.3336C20.3759 38.4805 15.1765 26.2668 6.28363 17.0161L3.00044 20.3161C10.965 28.7298 15.6647 39.7338 16.2494 51.3322L20.892 51.3336Z" fill="white"/>
</svg>
