<svg width="160" height="160" viewBox="0 0 160 160" fill="none" xmlns="http://www.w3.org/2000/svg">
<path d="M156.712 20.8219H96.4384V14.2466C96.4384 5.0411 91.3973 0 82.1918 0H75.6164C66.411 0 61.3699 5.0411 61.3699 14.2466V35.0685C61.3699 35.726 60.274 36.7123 59.8356 37.0411C49.6438 43.6164 42.7397 54.7945 42.7397 67.9452C42.7397 69.9178 44.0548 71.2329 46.0274 71.2329H47.4539H111.781C113.753 71.2329 115.068 69.9178 115.068 67.9452C115.068 55.7808 108.822 44.9315 99.6164 38.3562H142.468V140.274H126.029V135.89C126.029 133.918 124.714 132.603 122.742 132.603H106.742L123.399 129.315C125.043 128.986 125.614 127.89 125.479 126.575C125.345 125.26 123.288 124.384 121.755 125.26L82.5224 132.603L40.1096 124.932C38.4658 124.603 37.0411 124.603 36.7123 126.575C36.3836 128.219 36.8219 128.986 38.7945 129.315L57.9726 132.603H41.6438C39.6712 132.603 38.3562 133.918 38.3562 135.89V140.274H3.28767C1.31507 140.274 0 141.589 0 143.562V156.712C0 158.685 1.31507 160 3.28767 160H156.712C158.685 160 160 158.685 160 156.712V24.1096C160 22.137 158.685 20.8219 156.712 20.8219ZM65.7534 14.2466C65.7534 8.65753 70.0274 4.38356 75.6164 4.38356H82.1918C87.7808 4.38356 92.0548 8.65753 92.0548 14.2466V34.411C88.1096 32.7671 83.5069 31.7808 78.9041 31.7808C74.3014 31.7808 69.6986 32.7671 65.7534 34.411V14.2466ZM110.358 66.8493H47.4539C49.0978 52.0548 63.7827 36.1644 78.906 36.1644C94.0293 36.1644 108.714 52.0548 110.358 66.8493ZM42.7435 136.986H121.648V140.274H42.7435V136.986ZM155.62 155.616H4.38732V144.658H143.565C145.538 144.658 146.853 143.89 146.853 141.918V37.2603C146.853 35.2877 145.538 33.9726 143.565 33.9726H96.4421V25.2055H155.62V155.616Z" fill="white"/>
</svg>
