<svg width="104" height="52" viewBox="0 0 104 52" fill="none" xmlns="http://www.w3.org/2000/svg">
<path d="M10.7453 7.74C12.3053 7.74 13.6733 8.04 14.8493 8.64C16.0493 9.24 16.9853 10.152 17.6573 11.376C18.3293 12.6 18.6653 14.148 18.6653 16.02V27H15.2093V16.416C15.2093 14.568 14.7533 13.176 13.8413 12.24C12.9533 11.304 11.6933 10.836 10.0613 10.836C8.83725 10.836 7.76925 11.076 6.85725 11.556C5.94525 12.036 5.23725 12.744 4.73325 13.68C4.25325 14.616 4.01325 15.78 4.01325 17.172V27H0.55725V0.287998H4.01325V13.068L3.32925 11.7C3.95325 10.452 4.91325 9.48 6.20925 8.784C7.50525 8.088 9.01725 7.74 10.7453 7.74ZM33.2332 27.216C31.3132 27.216 29.6092 26.796 28.1212 25.956C26.6332 25.116 25.4572 23.964 24.5932 22.5C23.7292 21.012 23.2972 19.332 23.2972 17.46C23.2972 15.564 23.7292 13.884 24.5932 12.42C25.4572 10.956 26.6332 9.816 28.1212 9C29.6092 8.16 31.3132 7.74 33.2332 7.74C35.1292 7.74 36.8212 8.16 38.3092 9C39.8212 9.816 40.9972 10.956 41.8372 12.42C42.7012 13.86 43.1332 15.54 43.1332 17.46C43.1332 19.356 42.7012 21.036 41.8372 22.5C40.9972 23.964 39.8212 25.116 38.3092 25.956C36.8212 26.796 35.1292 27.216 33.2332 27.216ZM33.2332 24.192C34.4572 24.192 35.5492 23.916 36.5092 23.364C37.4932 22.812 38.2612 22.032 38.8132 21.024C39.3652 19.992 39.6412 18.804 39.6412 17.46C39.6412 16.092 39.3652 14.916 38.8132 13.932C38.2612 12.924 37.4932 12.144 36.5092 11.592C35.5492 11.04 34.4572 10.764 33.2332 10.764C32.0092 10.764 30.9172 11.04 29.9572 11.592C28.9972 12.144 28.2292 12.924 27.6532 13.932C27.0772 14.916 26.7892 16.092 26.7892 17.46C26.7892 18.804 27.0772 19.992 27.6532 21.024C28.2292 22.032 28.9972 22.812 29.9572 23.364C30.9172 23.916 32.0092 24.192 33.2332 24.192ZM71.7807 7.74C73.3167 7.74 74.6727 8.04 75.8487 8.64C77.0247 9.24 77.9367 10.152 78.5847 11.376C79.2567 12.6 79.5927 14.148 79.5927 16.02V27H76.1367V16.416C76.1367 14.568 75.7047 13.176 74.8407 12.24C73.9767 11.304 72.7647 10.836 71.2047 10.836C70.0527 10.836 69.0447 11.076 68.1807 11.556C67.3167 12.036 66.6447 12.744 66.1647 13.68C65.7087 14.616 65.4807 15.78 65.4807 17.172V27H62.0247V16.416C62.0247 14.568 61.5927 13.176 60.7287 12.24C59.8887 11.304 58.6767 10.836 57.0927 10.836C55.9647 10.836 54.9687 11.076 54.1047 11.556C53.2407 12.036 52.5687 12.744 52.0887 13.68C51.6087 14.616 51.3687 15.78 51.3687 17.172V27H47.9127V7.92H51.2247V12.996L50.6847 11.7C51.2847 10.452 52.2087 9.48 53.4567 8.784C54.7047 8.088 56.1567 7.74 57.8127 7.74C59.6367 7.74 61.2087 8.196 62.5287 9.108C63.8487 9.996 64.7127 11.352 65.1207 13.176L63.7167 12.6C64.2927 11.136 65.3007 9.96 66.7407 9.072C68.1807 8.184 69.8607 7.74 71.7807 7.74ZM94.4478 27.216C92.4078 27.216 90.6078 26.796 89.0478 25.956C87.5118 25.116 86.3118 23.964 85.4478 22.5C84.6078 21.036 84.1878 19.356 84.1878 17.46C84.1878 15.564 84.5958 13.884 85.4118 12.42C86.2518 10.956 87.3918 9.816 88.8318 9C90.2958 8.16 91.9398 7.74 93.7638 7.74C95.6118 7.74 97.2438 8.148 98.6598 8.964C100.076 9.78 101.18 10.932 101.972 12.42C102.788 13.884 103.196 15.6 103.196 17.568C103.196 17.712 103.184 17.88 103.16 18.072C103.16 18.264 103.148 18.444 103.124 18.612H86.8878V16.128H101.324L99.9198 16.992C99.9438 15.768 99.6918 14.676 99.1638 13.716C98.6358 12.756 97.9038 12.012 96.9678 11.484C96.0558 10.932 94.9878 10.656 93.7638 10.656C92.5638 10.656 91.4958 10.932 90.5598 11.484C89.6238 12.012 88.8918 12.768 88.3638 13.752C87.8358 14.712 87.5718 15.816 87.5718 17.064V17.64C87.5718 18.912 87.8598 20.052 88.4358 21.06C89.0358 22.044 89.8638 22.812 90.9198 23.364C91.9758 23.916 93.1878 24.192 94.5558 24.192C95.6838 24.192 96.7038 24 97.6158 23.616C98.5518 23.232 99.3678 22.656 100.064 21.888L101.972 24.12C101.108 25.128 100.028 25.896 98.7318 26.424C97.4598 26.952 96.0318 27.216 94.4478 27.216ZM8.35097 51L1.25897 31.92H4.53497L10.835 49.2H9.28697L15.839 31.92H18.755L25.163 49.2H23.651L30.095 31.92H33.191L26.063 51H22.751L16.739 35.232H17.747L11.663 51H8.35097ZM44.3425 51.216C42.4225 51.216 40.7185 50.796 39.2305 49.956C37.7425 49.116 36.5665 47.964 35.7025 46.5C34.8385 45.012 34.4065 43.332 34.4065 41.46C34.4065 39.564 34.8385 37.884 35.7025 36.42C36.5665 34.956 37.7425 33.816 39.2305 33C40.7185 32.16 42.4225 31.74 44.3425 31.74C46.2385 31.74 47.9305 32.16 49.4185 33C50.9305 33.816 52.1065 34.956 52.9465 36.42C53.8105 37.86 54.2425 39.54 54.2425 41.46C54.2425 43.356 53.8105 45.036 52.9465 46.5C52.1065 47.964 50.9305 49.116 49.4185 49.956C47.9305 50.796 46.2385 51.216 44.3425 51.216ZM44.3425 48.192C45.5665 48.192 46.6585 47.916 47.6185 47.364C48.6025 46.812 49.3705 46.032 49.9225 45.024C50.4745 43.992 50.7505 42.804 50.7505 41.46C50.7505 40.092 50.4745 38.916 49.9225 37.932C49.3705 36.924 48.6025 36.144 47.6185 35.592C46.6585 35.04 45.5665 34.764 44.3425 34.764C43.1185 34.764 42.0265 35.04 41.0665 35.592C40.1065 36.144 39.3385 36.924 38.7625 37.932C38.1865 38.916 37.8985 40.092 37.8985 41.46C37.8985 42.804 38.1865 43.992 38.7625 45.024C39.3385 46.032 40.1065 46.812 41.0665 47.364C42.0265 47.916 43.1185 48.192 44.3425 48.192ZM59.0221 51V31.92H62.3341V37.104L62.0101 35.808C62.5381 34.488 63.4261 33.48 64.6741 32.784C65.9221 32.088 67.4581 31.74 69.2821 31.74V35.088C69.1381 35.064 68.9941 35.052 68.8501 35.052C68.7301 35.052 68.6101 35.052 68.4901 35.052C66.6421 35.052 65.1781 35.604 64.0981 36.708C63.0181 37.812 62.4781 39.408 62.4781 41.496V51H59.0221ZM76.3496 46.392L76.4216 41.964L87.4016 31.92H91.5776L83.1536 40.2L81.2816 41.784L76.3496 46.392ZM73.5416 51V24.288H76.9976V51H73.5416ZM88.1216 51L80.6336 41.712L82.8656 38.94L92.3696 51H88.1216ZM96.9048 51.216C96.2328 51.216 95.6568 50.988 95.1768 50.532C94.6968 50.052 94.4568 49.452 94.4568 48.732C94.4568 48.012 94.6968 47.424 95.1768 46.968C95.6568 46.512 96.2328 46.284 96.9048 46.284C97.5528 46.284 98.1048 46.512 98.5608 46.968C99.0408 47.424 99.2808 48.012 99.2808 48.732C99.2808 49.452 99.0408 50.052 98.5608 50.532C98.1048 50.988 97.5528 51.216 96.9048 51.216Z" fill="white"/>
</svg>