<svg width="308" height="46" viewBox="0 0 308 46" fill="none" xmlns="http://www.w3.org/2000/svg">
<circle cx="281" cy="10" r="10" fill="white"/>
<path d="M280.701 14.12C280.214 14.12 279.731 14.0567 279.251 13.93C278.771 13.7967 278.364 13.61 278.031 13.37L278.661 12.13C278.928 12.3233 279.238 12.4767 279.591 12.59C279.944 12.7033 280.301 12.76 280.661 12.76C281.068 12.76 281.388 12.68 281.621 12.52C281.854 12.36 281.971 12.14 281.971 11.86C281.971 11.5933 281.868 11.3833 281.661 11.23C281.454 11.0767 281.121 11 280.661 11H279.921V9.93L281.871 7.72L282.051 8.3H278.381V7H283.281V8.05L281.341 10.26L280.521 9.79H280.991C281.851 9.79 282.501 9.98333 282.941 10.37C283.381 10.7567 283.601 11.2533 283.601 11.86C283.601 12.2533 283.498 12.6233 283.291 12.97C283.084 13.31 282.768 13.5867 282.341 13.8C281.914 14.0133 281.368 14.12 280.701 14.12Z" fill="#0D6EFD"/>
<path d="M14.2697 36V29H17.2197C17.9664 29 18.6231 29.1467 19.1897 29.44C19.7631 29.7333 20.2064 30.1433 20.5197 30.67C20.8397 31.1967 20.9997 31.8067 20.9997 32.5C20.9997 33.1933 20.8397 33.8033 20.5197 34.33C20.2064 34.8567 19.7631 35.2667 19.1897 35.56C18.6231 35.8533 17.9664 36 17.2197 36H14.2697ZM15.2697 35.13H17.1597C17.7397 35.13 18.2397 35.02 18.6597 34.8C19.0864 34.58 19.4164 34.2733 19.6497 33.88C19.8831 33.48 19.9997 33.02 19.9997 32.5C19.9997 31.9733 19.8831 31.5133 19.6497 31.12C19.4164 30.7267 19.0864 30.42 18.6597 30.2C18.2397 29.98 17.7397 29.87 17.1597 29.87H15.2697V35.13ZM25.6814 36V34.88L25.6314 34.67V32.76C25.6314 32.3533 25.5114 32.04 25.2714 31.82C25.0381 31.5933 24.6848 31.48 24.2114 31.48C23.8981 31.48 23.5914 31.5333 23.2914 31.64C22.9914 31.74 22.7381 31.8767 22.5314 32.05L22.1314 31.33C22.4048 31.11 22.7314 30.9433 23.1114 30.83C23.4981 30.71 23.9014 30.65 24.3214 30.65C25.0481 30.65 25.6081 30.8267 26.0014 31.18C26.3948 31.5333 26.5914 32.0733 26.5914 32.8V36H25.6814ZM23.9414 36.06C23.5481 36.06 23.2014 35.9933 22.9014 35.86C22.6081 35.7267 22.3814 35.5433 22.2214 35.31C22.0614 35.07 21.9814 34.8 21.9814 34.5C21.9814 34.2133 22.0481 33.9533 22.1814 33.72C22.3214 33.4867 22.5448 33.3 22.8514 33.16C23.1648 33.02 23.5848 32.95 24.1114 32.95H25.7914V33.64H24.1514C23.6714 33.64 23.3481 33.72 23.1814 33.88C23.0148 34.04 22.9314 34.2333 22.9314 34.46C22.9314 34.72 23.0348 34.93 23.2414 35.09C23.4481 35.2433 23.7348 35.32 24.1014 35.32C24.4614 35.32 24.7748 35.24 25.0414 35.08C25.3148 34.92 25.5114 34.6867 25.6314 34.38L25.8214 35.04C25.6948 35.3533 25.4714 35.6033 25.1514 35.79C24.8314 35.97 24.4281 36.06 23.9414 36.06ZM30.188 36.06C29.6547 36.06 29.2413 35.9167 28.948 35.63C28.6547 35.3433 28.508 34.9333 28.508 34.4V29.54H29.468V34.36C29.468 34.6467 29.538 34.8667 29.678 35.02C29.8247 35.1733 30.0313 35.25 30.298 35.25C30.598 35.25 30.848 35.1667 31.048 35L31.348 35.69C31.2013 35.8167 31.0247 35.91 30.818 35.97C30.618 36.03 30.408 36.06 30.188 36.06ZM27.608 31.49V30.7H30.988V31.49H27.608ZM34.6029 36.06C34.0695 36.06 33.5962 35.9433 33.1829 35.71C32.7695 35.4767 32.4429 35.1567 32.2029 34.75C31.9629 34.3367 31.8429 33.87 31.8429 33.35C31.8429 32.8233 31.9629 32.3567 32.2029 31.95C32.4429 31.5433 32.7695 31.2267 33.1829 31C33.5962 30.7667 34.0695 30.65 34.6029 30.65C35.1295 30.65 35.5995 30.7667 36.0129 31C36.4329 31.2267 36.7595 31.5433 36.9929 31.95C37.2329 32.35 37.3529 32.8167 37.3529 33.35C37.3529 33.8767 37.2329 34.3433 36.9929 34.75C36.7595 35.1567 36.4329 35.4767 36.0129 35.71C35.5995 35.9433 35.1295 36.06 34.6029 36.06ZM34.6029 35.22C34.9429 35.22 35.2462 35.1433 35.5129 34.99C35.7862 34.8367 35.9995 34.62 36.1529 34.34C36.3062 34.0533 36.3829 33.7233 36.3829 33.35C36.3829 32.97 36.3062 32.6433 36.1529 32.37C35.9995 32.09 35.7862 31.8733 35.5129 31.72C35.2462 31.5667 34.9429 31.49 34.6029 31.49C34.2629 31.49 33.9595 31.5667 33.6929 31.72C33.4262 31.8733 33.2129 32.09 33.0529 32.37C32.8929 32.6433 32.8129 32.97 32.8129 33.35C32.8129 33.7233 32.8929 34.0533 33.0529 34.34C33.2129 34.62 33.4262 34.8367 33.6929 34.99C33.9595 35.1433 34.2629 35.22 34.6029 35.22ZM40.2005 36.06C39.7605 36.06 39.3405 36 38.9405 35.88C38.5472 35.76 38.2372 35.6133 38.0105 35.44L38.4105 34.68C38.6372 34.8333 38.9172 34.9633 39.2505 35.07C39.5838 35.1767 39.9238 35.23 40.2705 35.23C40.7172 35.23 41.0372 35.1667 41.2305 35.04C41.4305 34.9133 41.5305 34.7367 41.5305 34.51C41.5305 34.3433 41.4705 34.2133 41.3505 34.12C41.2305 34.0267 41.0705 33.9567 40.8705 33.91C40.6772 33.8633 40.4605 33.8233 40.2205 33.79C39.9805 33.75 39.7405 33.7033 39.5005 33.65C39.2605 33.59 39.0405 33.51 38.8405 33.41C38.6405 33.3033 38.4805 33.16 38.3605 32.98C38.2405 32.7933 38.1805 32.5467 38.1805 32.24C38.1805 31.92 38.2705 31.64 38.4505 31.4C38.6305 31.16 38.8838 30.9767 39.2105 30.85C39.5438 30.7167 39.9372 30.65 40.3905 30.65C40.7372 30.65 41.0872 30.6933 41.4405 30.78C41.8005 30.86 42.0938 30.9767 42.3205 31.13L41.9105 31.89C41.6705 31.73 41.4205 31.62 41.1605 31.56C40.9005 31.5 40.6405 31.47 40.3805 31.47C39.9605 31.47 39.6472 31.54 39.4405 31.68C39.2338 31.8133 39.1305 31.9867 39.1305 32.2C39.1305 32.38 39.1905 32.52 39.3105 32.62C39.4372 32.7133 39.5972 32.7867 39.7905 32.84C39.9905 32.8933 40.2105 32.94 40.4505 32.98C40.6905 33.0133 40.9305 33.06 41.1705 33.12C41.4105 33.1733 41.6272 33.25 41.8205 33.35C42.0205 33.45 42.1805 33.59 42.3005 33.77C42.4272 33.95 42.4905 34.19 42.4905 34.49C42.4905 34.81 42.3972 35.0867 42.2105 35.32C42.0238 35.5533 41.7605 35.7367 41.4205 35.87C41.0805 35.9967 40.6738 36.06 40.2005 36.06ZM4.17117 44.06C3.73117 44.06 3.32784 43.96 2.96117 43.76C2.60117 43.5533 2.31117 43.25 2.09117 42.85C1.87784 42.45 1.77117 41.95 1.77117 41.35C1.77117 40.75 1.87451 40.25 2.08117 39.85C2.29451 39.45 2.58117 39.15 2.94117 38.95C3.30784 38.75 3.71784 38.65 4.17117 38.65C4.69117 38.65 5.15117 38.7633 5.55117 38.99C5.95117 39.2167 6.26784 39.5333 6.50117 39.94C6.73451 40.34 6.85117 40.81 6.85117 41.35C6.85117 41.89 6.73451 42.3633 6.50117 42.77C6.26784 43.1767 5.95117 43.4933 5.55117 43.72C5.15117 43.9467 4.69117 44.06 4.17117 44.06ZM1.36117 45.94V38.7H2.28117V40.13L2.22117 41.36L2.32117 42.59V45.94H1.36117ZM4.09117 43.22C4.43117 43.22 4.73451 43.1433 5.00117 42.99C5.27451 42.8367 5.48784 42.62 5.64117 42.34C5.80117 42.0533 5.88117 41.7233 5.88117 41.35C5.88117 40.97 5.80117 40.6433 5.64117 40.37C5.48784 40.09 5.27451 39.8733 5.00117 39.72C4.73451 39.5667 4.43117 39.49 4.09117 39.49C3.75784 39.49 3.45451 39.5667 3.18117 39.72C2.91451 39.8733 2.70117 40.09 2.54117 40.37C2.38784 40.6433 2.31117 40.97 2.31117 41.35C2.31117 41.7233 2.38784 42.0533 2.54117 42.34C2.70117 42.62 2.91451 42.8367 3.18117 42.99C3.45451 43.1433 3.75784 43.22 4.09117 43.22ZM10.5376 44.06C9.97091 44.06 9.47091 43.9433 9.03758 43.71C8.61091 43.4767 8.27758 43.1567 8.03758 42.75C7.80424 42.3433 7.68758 41.8767 7.68758 41.35C7.68758 40.8233 7.80091 40.3567 8.02758 39.95C8.26091 39.5433 8.57758 39.2267 8.97758 39C9.38424 38.7667 9.84091 38.65 10.3476 38.65C10.8609 38.65 11.3142 38.7633 11.7076 38.99C12.1009 39.2167 12.4076 39.5367 12.6276 39.95C12.8542 40.3567 12.9676 40.8333 12.9676 41.38C12.9676 41.42 12.9642 41.4667 12.9576 41.52C12.9576 41.5733 12.9542 41.6233 12.9476 41.67H8.43758V40.98H12.4476L12.0576 41.22C12.0642 40.88 11.9942 40.5767 11.8476 40.31C11.7009 40.0433 11.4976 39.8367 11.2376 39.69C10.9842 39.5367 10.6876 39.46 10.3476 39.46C10.0142 39.46 9.71758 39.5367 9.45758 39.69C9.19758 39.8367 8.99424 40.0467 8.84758 40.32C8.70091 40.5867 8.62758 40.8933 8.62758 41.24V41.4C8.62758 41.7533 8.70758 42.07 8.86758 42.35C9.03424 42.6233 9.26424 42.8367 9.55758 42.99C9.85091 43.1433 10.1876 43.22 10.5676 43.22C10.8809 43.22 11.1642 43.1667 11.4176 43.06C11.6776 42.9533 11.9042 42.7933 12.0976 42.58L12.6276 43.2C12.3876 43.48 12.0876 43.6933 11.7276 43.84C11.3742 43.9867 10.9776 44.06 10.5376 44.06ZM14.3006 44V38.7H15.2206V40.14L15.1306 39.78C15.2773 39.4133 15.524 39.1333 15.8706 38.94C16.2173 38.7467 16.644 38.65 17.1506 38.65V39.58C17.1106 39.5733 17.0706 39.57 17.0306 39.57C16.9973 39.57 16.964 39.57 16.9306 39.57C16.4173 39.57 16.0106 39.7233 15.7106 40.03C15.4106 40.3367 15.2606 40.78 15.2606 41.36V44H14.3006ZM19.9124 44.06C19.4724 44.06 19.0524 44 18.6524 43.88C18.2591 43.76 17.9491 43.6133 17.7224 43.44L18.1224 42.68C18.3491 42.8333 18.6291 42.9633 18.9624 43.07C19.2958 43.1767 19.6358 43.23 19.9824 43.23C20.4291 43.23 20.7491 43.1667 20.9424 43.04C21.1424 42.9133 21.2424 42.7367 21.2424 42.51C21.2424 42.3433 21.1824 42.2133 21.0624 42.12C20.9424 42.0267 20.7824 41.9567 20.5824 41.91C20.3891 41.8633 20.1724 41.8233 19.9324 41.79C19.6924 41.75 19.4524 41.7033 19.2124 41.65C18.9724 41.59 18.7524 41.51 18.5524 41.41C18.3524 41.3033 18.1924 41.16 18.0724 40.98C17.9524 40.7933 17.8924 40.5467 17.8924 40.24C17.8924 39.92 17.9824 39.64 18.1624 39.4C18.3424 39.16 18.5958 38.9767 18.9224 38.85C19.2558 38.7167 19.6491 38.65 20.1024 38.65C20.4491 38.65 20.7991 38.6933 21.1524 38.78C21.5124 38.86 21.8058 38.9767 22.0324 39.13L21.6224 39.89C21.3824 39.73 21.1324 39.62 20.8724 39.56C20.6124 39.5 20.3524 39.47 20.0924 39.47C19.6724 39.47 19.3591 39.54 19.1524 39.68C18.9458 39.8133 18.8424 39.9867 18.8424 40.2C18.8424 40.38 18.9024 40.52 19.0224 40.62C19.1491 40.7133 19.3091 40.7867 19.5024 40.84C19.7024 40.8933 19.9224 40.94 20.1624 40.98C20.4024 41.0133 20.6424 41.06 20.8824 41.12C21.1224 41.1733 21.3391 41.25 21.5324 41.35C21.7324 41.45 21.8924 41.59 22.0124 41.77C22.1391 41.95 22.2024 42.19 22.2024 42.49C22.2024 42.81 22.1091 43.0867 21.9224 43.32C21.7358 43.5533 21.4724 43.7367 21.1324 43.87C20.7924 43.9967 20.3858 44.06 19.9124 44.06ZM25.6722 44.06C25.1389 44.06 24.6655 43.9433 24.2522 43.71C23.8389 43.4767 23.5122 43.1567 23.2722 42.75C23.0322 42.3367 22.9122 41.87 22.9122 41.35C22.9122 40.8233 23.0322 40.3567 23.2722 39.95C23.5122 39.5433 23.8389 39.2267 24.2522 39C24.6655 38.7667 25.1389 38.65 25.6722 38.65C26.1989 38.65 26.6689 38.7667 27.0822 39C27.5022 39.2267 27.8289 39.5433 28.0622 39.95C28.3022 40.35 28.4222 40.8167 28.4222 41.35C28.4222 41.8767 28.3022 42.3433 28.0622 42.75C27.8289 43.1567 27.5022 43.4767 27.0822 43.71C26.6689 43.9433 26.1989 44.06 25.6722 44.06ZM25.6722 43.22C26.0122 43.22 26.3155 43.1433 26.5822 42.99C26.8555 42.8367 27.0689 42.62 27.2222 42.34C27.3755 42.0533 27.4522 41.7233 27.4522 41.35C27.4522 40.97 27.3755 40.6433 27.2222 40.37C27.0689 40.09 26.8555 39.8733 26.5822 39.72C26.3155 39.5667 26.0122 39.49 25.6722 39.49C25.3322 39.49 25.0289 39.5667 24.7622 39.72C24.4955 39.8733 24.2822 40.09 24.1222 40.37C23.9622 40.6433 23.8822 40.97 23.8822 41.35C23.8822 41.7233 23.9622 42.0533 24.1222 42.34C24.2822 42.62 24.4955 42.8367 24.7622 42.99C25.0289 43.1433 25.3322 43.22 25.6722 43.22ZM32.5798 38.65C33.0132 38.65 33.3932 38.7333 33.7198 38.9C34.0532 39.0667 34.3132 39.32 34.4998 39.66C34.6865 40 34.7798 40.43 34.7798 40.95V44H33.8198V41.06C33.8198 40.5467 33.6932 40.16 33.4398 39.9C33.1932 39.64 32.8432 39.51 32.3898 39.51C32.0498 39.51 31.7532 39.5767 31.4998 39.71C31.2465 39.8433 31.0498 40.04 30.9098 40.3C30.7765 40.56 30.7098 40.8833 30.7098 41.27V44H29.7498V38.7H30.6698V40.13L30.5198 39.75C30.6932 39.4033 30.9598 39.1333 31.3198 38.94C31.6798 38.7467 32.0998 38.65 32.5798 38.65ZM39.8465 44V42.88L39.7965 42.67V40.76C39.7965 40.3533 39.6765 40.04 39.4365 39.82C39.2032 39.5933 38.8498 39.48 38.3765 39.48C38.0632 39.48 37.7565 39.5333 37.4565 39.64C37.1565 39.74 36.9032 39.8767 36.6965 40.05L36.2965 39.33C36.5698 39.11 36.8965 38.9433 37.2765 38.83C37.6632 38.71 38.0665 38.65 38.4865 38.65C39.2132 38.65 39.7732 38.8267 40.1665 39.18C40.5598 39.5333 40.7565 40.0733 40.7565 40.8V44H39.8465ZM38.1065 44.06C37.7132 44.06 37.3665 43.9933 37.0665 43.86C36.7732 43.7267 36.5465 43.5433 36.3865 43.31C36.2265 43.07 36.1465 42.8 36.1465 42.5C36.1465 42.2133 36.2132 41.9533 36.3465 41.72C36.4865 41.4867 36.7098 41.3 37.0165 41.16C37.3298 41.02 37.7498 40.95 38.2765 40.95H39.9565V41.64H38.3165C37.8365 41.64 37.5132 41.72 37.3465 41.88C37.1798 42.04 37.0965 42.2333 37.0965 42.46C37.0965 42.72 37.1998 42.93 37.4065 43.09C37.6132 43.2433 37.8998 43.32 38.2665 43.32C38.6265 43.32 38.9398 43.24 39.2065 43.08C39.4798 42.92 39.6765 42.6867 39.7965 42.38L39.9865 43.04C39.8598 43.3533 39.6365 43.6033 39.3165 43.79C38.9965 43.97 38.5932 44.06 38.1065 44.06ZM42.533 44V36.58H43.493V44H42.533ZM47.686 44.06C47.1193 44.06 46.6193 43.9433 46.186 43.71C45.7593 43.4767 45.426 43.1567 45.186 42.75C44.9527 42.3433 44.836 41.8767 44.836 41.35C44.836 40.8233 44.9493 40.3567 45.176 39.95C45.4093 39.5433 45.726 39.2267 46.126 39C46.5327 38.7667 46.9893 38.65 47.496 38.65C48.0093 38.65 48.4627 38.7633 48.856 38.99C49.2493 39.2167 49.556 39.5367 49.776 39.95C50.0027 40.3567 50.116 40.8333 50.116 41.38C50.116 41.42 50.1127 41.4667 50.106 41.52C50.106 41.5733 50.1027 41.6233 50.096 41.67H45.586V40.98H49.596L49.206 41.22C49.2127 40.88 49.1427 40.5767 48.996 40.31C48.8493 40.0433 48.646 39.8367 48.386 39.69C48.1327 39.5367 47.836 39.46 47.496 39.46C47.1627 39.46 46.866 39.5367 46.606 39.69C46.346 39.8367 46.1427 40.0467 45.996 40.32C45.8493 40.5867 45.776 40.8933 45.776 41.24V41.4C45.776 41.7533 45.856 42.07 46.016 42.35C46.1827 42.6233 46.4127 42.8367 46.706 42.99C46.9993 43.1433 47.336 43.22 47.716 43.22C48.0293 43.22 48.3127 43.1667 48.566 43.06C48.826 42.9533 49.0527 42.7933 49.246 42.58L49.776 43.2C49.536 43.48 49.236 43.6933 48.876 43.84C48.5227 43.9867 48.126 44.06 47.686 44.06ZM52.9691 44.06C52.5291 44.06 52.1091 44 51.7091 43.88C51.3157 43.76 51.0057 43.6133 50.7791 43.44L51.1791 42.68C51.4057 42.8333 51.6857 42.9633 52.0191 43.07C52.3524 43.1767 52.6924 43.23 53.0391 43.23C53.4857 43.23 53.8057 43.1667 53.9991 43.04C54.1991 42.9133 54.2991 42.7367 54.2991 42.51C54.2991 42.3433 54.2391 42.2133 54.1191 42.12C53.9991 42.0267 53.8391 41.9567 53.6391 41.91C53.4457 41.8633 53.2291 41.8233 52.9891 41.79C52.7491 41.75 52.5091 41.7033 52.2691 41.65C52.0291 41.59 51.8091 41.51 51.6091 41.41C51.4091 41.3033 51.2491 41.16 51.1291 40.98C51.0091 40.7933 50.9491 40.5467 50.9491 40.24C50.9491 39.92 51.0391 39.64 51.2191 39.4C51.3991 39.16 51.6524 38.9767 51.9791 38.85C52.3124 38.7167 52.7057 38.65 53.1591 38.65C53.5057 38.65 53.8557 38.6933 54.2091 38.78C54.5691 38.86 54.8624 38.9767 55.0891 39.13L54.6791 39.89C54.4391 39.73 54.1891 39.62 53.9291 39.56C53.6691 39.5 53.4091 39.47 53.1491 39.47C52.7291 39.47 52.4157 39.54 52.2091 39.68C52.0024 39.8133 51.8991 39.9867 51.8991 40.2C51.8991 40.38 51.9591 40.52 52.0791 40.62C52.2057 40.7133 52.3657 40.7867 52.5591 40.84C52.7591 40.8933 52.9791 40.94 53.2191 40.98C53.4591 41.0133 53.6991 41.06 53.9391 41.12C54.1791 41.1733 54.3957 41.25 54.5891 41.35C54.7891 41.45 54.9491 41.59 55.0691 41.77C55.1957 41.95 55.2591 42.19 55.2591 42.49C55.2591 42.81 55.1657 43.0867 54.9791 43.32C54.7924 43.5533 54.5291 43.7367 54.1891 43.87C53.8491 43.9967 53.4424 44.06 52.9691 44.06Z" fill="white"/>
<path d="M139.424 35V28H142.154C142.767 28 143.291 28.0967 143.724 28.29C144.157 28.4833 144.491 28.7633 144.724 29.13C144.957 29.4967 145.074 29.9333 145.074 30.44C145.074 30.9467 144.957 31.3833 144.724 31.75C144.491 32.11 144.157 32.3867 143.724 32.58C143.291 32.7733 142.767 32.87 142.154 32.87H139.974L140.424 32.41V35H139.424ZM144.104 35L142.324 32.46H143.394L145.194 35H144.104ZM140.424 32.51L139.974 32.02H142.124C142.764 32.02 143.247 31.8833 143.574 31.61C143.907 31.33 144.074 30.94 144.074 30.44C144.074 29.94 143.907 29.5533 143.574 29.28C143.247 29.0067 142.764 28.87 142.124 28.87H139.974L140.424 28.37V32.51ZM149.791 35V33.88L149.741 33.67V31.76C149.741 31.3533 149.621 31.04 149.381 30.82C149.147 30.5933 148.794 30.48 148.321 30.48C148.007 30.48 147.701 30.5333 147.401 30.64C147.101 30.74 146.847 30.8767 146.641 31.05L146.241 30.33C146.514 30.11 146.841 29.9433 147.221 29.83C147.607 29.71 148.011 29.65 148.431 29.65C149.157 29.65 149.717 29.8267 150.111 30.18C150.504 30.5333 150.701 31.0733 150.701 31.8V35H149.791ZM148.051 35.06C147.657 35.06 147.311 34.9933 147.011 34.86C146.717 34.7267 146.491 34.5433 146.331 34.31C146.171 34.07 146.091 33.8 146.091 33.5C146.091 33.2133 146.157 32.9533 146.291 32.72C146.431 32.4867 146.654 32.3 146.961 32.16C147.274 32.02 147.694 31.95 148.221 31.95H149.901V32.64H148.261C147.781 32.64 147.457 32.72 147.291 32.88C147.124 33.04 147.041 33.2333 147.041 33.46C147.041 33.72 147.144 33.93 147.351 34.09C147.557 34.2433 147.844 34.32 148.211 34.32C148.571 34.32 148.884 34.24 149.151 34.08C149.424 33.92 149.621 33.6867 149.741 33.38L149.931 34.04C149.804 34.3533 149.581 34.6033 149.261 34.79C148.941 34.97 148.537 35.06 148.051 35.06ZM155.307 29.65C155.741 29.65 156.121 29.7333 156.447 29.9C156.781 30.0667 157.041 30.32 157.227 30.66C157.414 31 157.507 31.43 157.507 31.95V35H156.547V32.06C156.547 31.5467 156.421 31.16 156.167 30.9C155.921 30.64 155.571 30.51 155.117 30.51C154.777 30.51 154.481 30.5767 154.227 30.71C153.974 30.8433 153.777 31.04 153.637 31.3C153.504 31.56 153.437 31.8833 153.437 32.27V35H152.477V29.7H153.397V31.13L153.247 30.75C153.421 30.4033 153.687 30.1333 154.047 29.94C154.407 29.7467 154.827 29.65 155.307 29.65ZM161.604 37C161.117 37 160.644 36.93 160.184 36.79C159.731 36.6567 159.361 36.4633 159.074 36.21L159.534 35.47C159.781 35.6833 160.084 35.85 160.444 35.97C160.804 36.0967 161.181 36.16 161.574 36.16C162.201 36.16 162.661 36.0133 162.954 35.72C163.247 35.4267 163.394 34.98 163.394 34.38V33.26L163.494 32.21L163.444 31.15V29.7H164.354V34.28C164.354 35.2133 164.121 35.9 163.654 36.34C163.187 36.78 162.504 37 161.604 37ZM161.484 34.78C160.971 34.78 160.511 34.6733 160.104 34.46C159.704 34.24 159.384 33.9367 159.144 33.55C158.911 33.1633 158.794 32.7167 158.794 32.21C158.794 31.6967 158.911 31.25 159.144 30.87C159.384 30.4833 159.704 30.1833 160.104 29.97C160.511 29.7567 160.971 29.65 161.484 29.65C161.937 29.65 162.351 29.7433 162.724 29.93C163.097 30.11 163.394 30.39 163.614 30.77C163.841 31.15 163.954 31.63 163.954 32.21C163.954 32.7833 163.841 33.26 163.614 33.64C163.394 34.02 163.097 34.3067 162.724 34.5C162.351 34.6867 161.937 34.78 161.484 34.78ZM161.594 33.94C161.947 33.94 162.261 33.8667 162.534 33.72C162.807 33.5733 163.021 33.37 163.174 33.11C163.334 32.85 163.414 32.55 163.414 32.21C163.414 31.87 163.334 31.57 163.174 31.31C163.021 31.05 162.807 30.85 162.534 30.71C162.261 30.5633 161.947 30.49 161.594 30.49C161.241 30.49 160.924 30.5633 160.644 30.71C160.371 30.85 160.154 31.05 159.994 31.31C159.841 31.57 159.764 31.87 159.764 32.21C159.764 32.55 159.841 32.85 159.994 33.11C160.154 33.37 160.371 33.5733 160.644 33.72C160.924 33.8667 161.241 33.94 161.594 33.94ZM168.458 35.06C167.925 35.06 167.452 34.9433 167.038 34.71C166.625 34.4767 166.298 34.1567 166.058 33.75C165.818 33.3367 165.698 32.87 165.698 32.35C165.698 31.8233 165.818 31.3567 166.058 30.95C166.298 30.5433 166.625 30.2267 167.038 30C167.452 29.7667 167.925 29.65 168.458 29.65C168.985 29.65 169.455 29.7667 169.868 30C170.288 30.2267 170.615 30.5433 170.848 30.95C171.088 31.35 171.208 31.8167 171.208 32.35C171.208 32.8767 171.088 33.3433 170.848 33.75C170.615 34.1567 170.288 34.4767 169.868 34.71C169.455 34.9433 168.985 35.06 168.458 35.06ZM168.458 34.22C168.798 34.22 169.102 34.1433 169.368 33.99C169.642 33.8367 169.855 33.62 170.008 33.34C170.162 33.0533 170.238 32.7233 170.238 32.35C170.238 31.97 170.162 31.6433 170.008 31.37C169.855 31.09 169.642 30.8733 169.368 30.72C169.102 30.5667 168.798 30.49 168.458 30.49C168.118 30.49 167.815 30.5667 167.548 30.72C167.282 30.8733 167.068 31.09 166.908 31.37C166.748 31.6433 166.668 31.97 166.668 32.35C166.668 32.7233 166.748 33.0533 166.908 33.34C167.068 33.62 167.282 33.8367 167.548 33.99C167.815 34.1433 168.118 34.22 168.458 34.22ZM143.563 45.06C142.996 45.06 142.496 44.9433 142.063 44.71C141.636 44.4767 141.303 44.1567 141.063 43.75C140.83 43.3433 140.713 42.8767 140.713 42.35C140.713 41.8233 140.826 41.3567 141.053 40.95C141.286 40.5433 141.603 40.2267 142.003 40C142.41 39.7667 142.866 39.65 143.373 39.65C143.886 39.65 144.34 39.7633 144.733 39.99C145.126 40.2167 145.433 40.5367 145.653 40.95C145.88 41.3567 145.993 41.8333 145.993 42.38C145.993 42.42 145.99 42.4667 145.983 42.52C145.983 42.5733 145.98 42.6233 145.973 42.67H141.463V41.98H145.473L145.083 42.22C145.09 41.88 145.02 41.5767 144.873 41.31C144.726 41.0433 144.523 40.8367 144.263 40.69C144.01 40.5367 143.713 40.46 143.373 40.46C143.04 40.46 142.743 40.5367 142.483 40.69C142.223 40.8367 142.02 41.0467 141.873 41.32C141.726 41.5867 141.653 41.8933 141.653 42.24V42.4C141.653 42.7533 141.733 43.07 141.893 43.35C142.06 43.6233 142.29 43.8367 142.583 43.99C142.876 44.1433 143.213 44.22 143.593 44.22C143.906 44.22 144.19 44.1667 144.443 44.06C144.703 43.9533 144.93 43.7933 145.123 43.58L145.653 44.2C145.413 44.48 145.113 44.6933 144.753 44.84C144.4 44.9867 144.003 45.06 143.563 45.06ZM149.146 45.06C148.613 45.06 148.199 44.9167 147.906 44.63C147.613 44.3433 147.466 43.9333 147.466 43.4V38.54H148.426V43.36C148.426 43.6467 148.496 43.8667 148.636 44.02C148.783 44.1733 148.989 44.25 149.256 44.25C149.556 44.25 149.806 44.1667 150.006 44L150.306 44.69C150.159 44.8167 149.983 44.91 149.776 44.97C149.576 45.03 149.366 45.06 149.146 45.06ZM146.566 40.49V39.7H149.946V40.49H146.566ZM154.757 45V43.88L154.707 43.67V41.76C154.707 41.3533 154.587 41.04 154.347 40.82C154.113 40.5933 153.76 40.48 153.287 40.48C152.973 40.48 152.667 40.5333 152.367 40.64C152.067 40.74 151.813 40.8767 151.607 41.05L151.207 40.33C151.48 40.11 151.807 39.9433 152.187 39.83C152.573 39.71 152.977 39.65 153.397 39.65C154.123 39.65 154.683 39.8267 155.077 40.18C155.47 40.5333 155.667 41.0733 155.667 41.8V45H154.757ZM153.017 45.06C152.623 45.06 152.277 44.9933 151.977 44.86C151.683 44.7267 151.457 44.5433 151.297 44.31C151.137 44.07 151.057 43.8 151.057 43.5C151.057 43.2133 151.123 42.9533 151.257 42.72C151.397 42.4867 151.62 42.3 151.927 42.16C152.24 42.02 152.66 41.95 153.187 41.95H154.867V42.64H153.227C152.747 42.64 152.423 42.72 152.257 42.88C152.09 43.04 152.007 43.2333 152.007 43.46C152.007 43.72 152.11 43.93 152.317 44.09C152.523 44.2433 152.81 44.32 153.177 44.32C153.537 44.32 153.85 44.24 154.117 44.08C154.39 43.92 154.587 43.6867 154.707 43.38L154.897 44.04C154.77 44.3533 154.547 44.6033 154.227 44.79C153.907 44.97 153.503 45.06 153.017 45.06ZM157.443 45V39.7H158.363V41.14L158.273 40.78C158.42 40.4133 158.667 40.1333 159.013 39.94C159.36 39.7467 159.787 39.65 160.293 39.65V40.58C160.253 40.5733 160.213 40.57 160.173 40.57C160.14 40.57 160.107 40.57 160.073 40.57C159.56 40.57 159.153 40.7233 158.853 41.03C158.553 41.3367 158.403 41.78 158.403 42.36V45H157.443ZM161.476 45V39.7H162.436V45H161.476ZM161.956 38.68C161.77 38.68 161.613 38.62 161.486 38.5C161.366 38.38 161.306 38.2333 161.306 38.06C161.306 37.88 161.366 37.73 161.486 37.61C161.613 37.49 161.77 37.43 161.956 37.43C162.143 37.43 162.296 37.49 162.416 37.61C162.543 37.7233 162.606 37.8667 162.606 38.04C162.606 38.22 162.546 38.3733 162.426 38.5C162.306 38.62 162.15 38.68 161.956 38.68ZM166.539 45.06C166.006 45.06 165.533 44.9433 165.119 44.71C164.706 44.4767 164.379 44.1567 164.139 43.75C163.899 43.3367 163.779 42.87 163.779 42.35C163.779 41.8233 163.899 41.3567 164.139 40.95C164.379 40.5433 164.706 40.2267 165.119 40C165.533 39.7667 166.006 39.65 166.539 39.65C167.066 39.65 167.536 39.7667 167.949 40C168.369 40.2267 168.696 40.5433 168.929 40.95C169.169 41.35 169.289 41.8167 169.289 42.35C169.289 42.8767 169.169 43.3433 168.929 43.75C168.696 44.1567 168.369 44.4767 167.949 44.71C167.536 44.9433 167.066 45.06 166.539 45.06ZM166.539 44.22C166.879 44.22 167.183 44.1433 167.449 43.99C167.723 43.8367 167.936 43.62 168.089 43.34C168.243 43.0533 168.319 42.7233 168.319 42.35C168.319 41.97 168.243 41.6433 168.089 41.37C167.936 41.09 167.723 40.8733 167.449 40.72C167.183 40.5667 166.879 40.49 166.539 40.49C166.199 40.49 165.896 40.5667 165.629 40.72C165.363 40.8733 165.149 41.09 164.989 41.37C164.829 41.6433 164.749 41.97 164.749 42.35C164.749 42.7233 164.829 43.0533 164.989 43.34C165.149 43.62 165.363 43.8367 165.629 43.99C165.896 44.1433 166.199 44.22 166.539 44.22Z" fill="white"/>
<path d="M259.457 34V27H262.407C263.154 27 263.811 27.1467 264.377 27.44C264.951 27.7333 265.394 28.1433 265.707 28.67C266.027 29.1967 266.187 29.8067 266.187 30.5C266.187 31.1933 266.027 31.8033 265.707 32.33C265.394 32.8567 264.951 33.2667 264.377 33.56C263.811 33.8533 263.154 34 262.407 34H259.457ZM260.457 33.13H262.347C262.927 33.13 263.427 33.02 263.847 32.8C264.274 32.58 264.604 32.2733 264.837 31.88C265.071 31.48 265.187 31.02 265.187 30.5C265.187 29.9733 265.071 29.5133 264.837 29.12C264.604 28.7267 264.274 28.42 263.847 28.2C263.427 27.98 262.927 27.87 262.347 27.87H260.457V33.13ZM270.869 34V32.88L270.819 32.67V30.76C270.819 30.3533 270.699 30.04 270.459 29.82C270.226 29.5933 269.872 29.48 269.399 29.48C269.086 29.48 268.779 29.5333 268.479 29.64C268.179 29.74 267.926 29.8767 267.719 30.05L267.319 29.33C267.592 29.11 267.919 28.9433 268.299 28.83C268.686 28.71 269.089 28.65 269.509 28.65C270.236 28.65 270.796 28.8267 271.189 29.18C271.582 29.5333 271.779 30.0733 271.779 30.8V34H270.869ZM269.129 34.06C268.736 34.06 268.389 33.9933 268.089 33.86C267.796 33.7267 267.569 33.5433 267.409 33.31C267.249 33.07 267.169 32.8 267.169 32.5C267.169 32.2133 267.236 31.9533 267.369 31.72C267.509 31.4867 267.732 31.3 268.039 31.16C268.352 31.02 268.772 30.95 269.299 30.95H270.979V31.64H269.339C268.859 31.64 268.536 31.72 268.369 31.88C268.202 32.04 268.119 32.2333 268.119 32.46C268.119 32.72 268.222 32.93 268.429 33.09C268.636 33.2433 268.922 33.32 269.289 33.32C269.649 33.32 269.962 33.24 270.229 33.08C270.502 32.92 270.699 32.6867 270.819 32.38L271.009 33.04C270.882 33.3533 270.659 33.6033 270.339 33.79C270.019 33.97 269.616 34.06 269.129 34.06ZM275.376 34.06C274.842 34.06 274.429 33.9167 274.136 33.63C273.842 33.3433 273.696 32.9333 273.696 32.4V27.54H274.656V32.36C274.656 32.6467 274.726 32.8667 274.866 33.02C275.012 33.1733 275.219 33.25 275.486 33.25C275.786 33.25 276.036 33.1667 276.236 33L276.536 33.69C276.389 33.8167 276.212 33.91 276.006 33.97C275.806 34.03 275.596 34.06 275.376 34.06ZM272.796 29.49V28.7H276.176V29.49H272.796ZM279.79 34.06C279.257 34.06 278.784 33.9433 278.37 33.71C277.957 33.4767 277.63 33.1567 277.39 32.75C277.15 32.3367 277.03 31.87 277.03 31.35C277.03 30.8233 277.15 30.3567 277.39 29.95C277.63 29.5433 277.957 29.2267 278.37 29C278.784 28.7667 279.257 28.65 279.79 28.65C280.317 28.65 280.787 28.7667 281.2 29C281.62 29.2267 281.947 29.5433 282.18 29.95C282.42 30.35 282.54 30.8167 282.54 31.35C282.54 31.8767 282.42 32.3433 282.18 32.75C281.947 33.1567 281.62 33.4767 281.2 33.71C280.787 33.9433 280.317 34.06 279.79 34.06ZM279.79 33.22C280.13 33.22 280.434 33.1433 280.7 32.99C280.974 32.8367 281.187 32.62 281.34 32.34C281.494 32.0533 281.57 31.7233 281.57 31.35C281.57 30.97 281.494 30.6433 281.34 30.37C281.187 30.09 280.974 29.8733 280.7 29.72C280.434 29.5667 280.13 29.49 279.79 29.49C279.45 29.49 279.147 29.5667 278.88 29.72C278.614 29.8733 278.4 30.09 278.24 30.37C278.08 30.6433 278 30.97 278 31.35C278 31.7233 278.08 32.0533 278.24 32.34C278.4 32.62 278.614 32.8367 278.88 32.99C279.147 33.1433 279.45 33.22 279.79 33.22ZM285.388 34.06C284.948 34.06 284.528 34 284.128 33.88C283.735 33.76 283.425 33.6133 283.198 33.44L283.598 32.68C283.825 32.8333 284.105 32.9633 284.438 33.07C284.771 33.1767 285.111 33.23 285.458 33.23C285.905 33.23 286.225 33.1667 286.418 33.04C286.618 32.9133 286.718 32.7367 286.718 32.51C286.718 32.3433 286.658 32.2133 286.538 32.12C286.418 32.0267 286.258 31.9567 286.058 31.91C285.865 31.8633 285.648 31.8233 285.408 31.79C285.168 31.75 284.928 31.7033 284.688 31.65C284.448 31.59 284.228 31.51 284.028 31.41C283.828 31.3033 283.668 31.16 283.548 30.98C283.428 30.7933 283.368 30.5467 283.368 30.24C283.368 29.92 283.458 29.64 283.638 29.4C283.818 29.16 284.071 28.9767 284.398 28.85C284.731 28.7167 285.125 28.65 285.578 28.65C285.925 28.65 286.275 28.6933 286.628 28.78C286.988 28.86 287.281 28.9767 287.508 29.13L287.098 29.89C286.858 29.73 286.608 29.62 286.348 29.56C286.088 29.5 285.828 29.47 285.568 29.47C285.148 29.47 284.835 29.54 284.628 29.68C284.421 29.8133 284.318 29.9867 284.318 30.2C284.318 30.38 284.378 30.52 284.498 30.62C284.625 30.7133 284.785 30.7867 284.978 30.84C285.178 30.8933 285.398 30.94 285.638 30.98C285.878 31.0133 286.118 31.06 286.358 31.12C286.598 31.1733 286.815 31.25 287.008 31.35C287.208 31.45 287.368 31.59 287.488 31.77C287.615 31.95 287.678 32.19 287.678 32.49C287.678 32.81 287.585 33.0867 287.398 33.32C287.211 33.5533 286.948 33.7367 286.608 33.87C286.268 33.9967 285.861 34.06 285.388 34.06ZM293.753 34.06C293.24 34.06 292.78 33.9467 292.373 33.72C291.973 33.4933 291.657 33.1767 291.423 32.77C291.19 32.3633 291.073 31.89 291.073 31.35C291.073 30.81 291.19 30.34 291.423 29.94C291.657 29.5333 291.973 29.2167 292.373 28.99C292.78 28.7633 293.24 28.65 293.753 28.65C294.2 28.65 294.603 28.75 294.963 28.95C295.323 29.15 295.61 29.45 295.823 29.85C296.043 30.25 296.153 30.75 296.153 31.35C296.153 31.95 296.047 32.45 295.833 32.85C295.627 33.25 295.343 33.5533 294.983 33.76C294.623 33.96 294.213 34.06 293.753 34.06ZM293.833 33.22C294.167 33.22 294.467 33.1433 294.733 32.99C295.007 32.8367 295.22 32.62 295.373 32.34C295.533 32.0533 295.613 31.7233 295.613 31.35C295.613 30.97 295.533 30.6433 295.373 30.37C295.22 30.09 295.007 29.8733 294.733 29.72C294.467 29.5667 294.167 29.49 293.833 29.49C293.493 29.49 293.19 29.5667 292.923 29.72C292.657 29.8733 292.443 30.09 292.283 30.37C292.123 30.6433 292.043 30.97 292.043 31.35C292.043 31.7233 292.123 32.0533 292.283 32.34C292.443 32.62 292.657 32.8367 292.923 32.99C293.19 33.1433 293.493 33.22 293.833 33.22ZM295.643 34V32.57L295.703 31.34L295.603 30.11V26.58H296.563V34H295.643ZM300.74 34.06C300.173 34.06 299.673 33.9433 299.24 33.71C298.813 33.4767 298.48 33.1567 298.24 32.75C298.006 32.3433 297.89 31.8767 297.89 31.35C297.89 30.8233 298.003 30.3567 298.23 29.95C298.463 29.5433 298.78 29.2267 299.18 29C299.586 28.7667 300.043 28.65 300.55 28.65C301.063 28.65 301.516 28.7633 301.91 28.99C302.303 29.2167 302.61 29.5367 302.83 29.95C303.056 30.3567 303.17 30.8333 303.17 31.38C303.17 31.42 303.166 31.4667 303.16 31.52C303.16 31.5733 303.156 31.6233 303.15 31.67H298.64V30.98H302.65L302.26 31.22C302.266 30.88 302.196 30.5767 302.05 30.31C301.903 30.0433 301.7 29.8367 301.44 29.69C301.186 29.5367 300.89 29.46 300.55 29.46C300.216 29.46 299.92 29.5367 299.66 29.69C299.4 29.8367 299.196 30.0467 299.05 30.32C298.903 30.5867 298.83 30.8933 298.83 31.24V31.4C298.83 31.7533 298.91 32.07 299.07 32.35C299.236 32.6233 299.466 32.8367 299.76 32.99C300.053 33.1433 300.39 33.22 300.77 33.22C301.083 33.22 301.366 33.1667 301.62 33.06C301.88 32.9533 302.106 32.7933 302.3 32.58L302.83 33.2C302.59 33.48 302.29 33.6933 301.93 33.84C301.576 33.9867 301.18 34.06 300.74 34.06ZM258.419 42V34.58H259.379V42H258.419ZM264.502 42V40.88L264.452 40.67V38.76C264.452 38.3533 264.332 38.04 264.092 37.82C263.858 37.5933 263.505 37.48 263.032 37.48C262.718 37.48 262.412 37.5333 262.112 37.64C261.812 37.74 261.558 37.8767 261.352 38.05L260.952 37.33C261.225 37.11 261.552 36.9433 261.932 36.83C262.318 36.71 262.722 36.65 263.142 36.65C263.868 36.65 264.428 36.8267 264.822 37.18C265.215 37.5333 265.412 38.0733 265.412 38.8V42H264.502ZM262.762 42.06C262.368 42.06 262.022 41.9933 261.722 41.86C261.428 41.7267 261.202 41.5433 261.042 41.31C260.882 41.07 260.802 40.8 260.802 40.5C260.802 40.2133 260.868 39.9533 261.002 39.72C261.142 39.4867 261.365 39.3 261.672 39.16C261.985 39.02 262.405 38.95 262.932 38.95H264.612V39.64H262.972C262.492 39.64 262.168 39.72 262.002 39.88C261.835 40.04 261.752 40.2333 261.752 40.46C261.752 40.72 261.855 40.93 262.062 41.09C262.268 41.2433 262.555 41.32 262.922 41.32C263.282 41.32 263.595 41.24 263.862 41.08C264.135 40.92 264.332 40.6867 264.452 40.38L264.642 41.04C264.515 41.3533 264.292 41.6033 263.972 41.79C263.652 41.97 263.248 42.06 262.762 42.06ZM272.184 42.06C271.644 42.06 271.161 41.9433 270.734 41.71C270.314 41.4767 269.984 41.1567 269.744 40.75C269.504 40.3433 269.384 39.8767 269.384 39.35C269.384 38.8233 269.504 38.3567 269.744 37.95C269.984 37.5433 270.314 37.2267 270.734 37C271.161 36.7667 271.644 36.65 272.184 36.65C272.664 36.65 273.091 36.7467 273.464 36.94C273.844 37.1267 274.137 37.4067 274.344 37.78L273.614 38.25C273.441 37.99 273.227 37.8 272.974 37.68C272.727 37.5533 272.461 37.49 272.174 37.49C271.827 37.49 271.517 37.5667 271.244 37.72C270.971 37.8733 270.754 38.09 270.594 38.37C270.434 38.6433 270.354 38.97 270.354 39.35C270.354 39.73 270.434 40.06 270.594 40.34C270.754 40.62 270.971 40.8367 271.244 40.99C271.517 41.1433 271.827 41.22 272.174 41.22C272.461 41.22 272.727 41.16 272.974 41.04C273.227 40.9133 273.441 40.72 273.614 40.46L274.344 40.92C274.137 41.2867 273.844 41.57 273.464 41.77C273.091 41.9633 272.664 42.06 272.184 42.06ZM277.817 42.06C277.363 42.06 276.963 41.9767 276.617 41.81C276.277 41.6433 276.01 41.39 275.817 41.05C275.63 40.7033 275.537 40.27 275.537 39.75V36.7H276.497V39.64C276.497 40.16 276.62 40.55 276.867 40.81C277.12 41.07 277.473 41.2 277.927 41.2C278.26 41.2 278.55 41.1333 278.797 41C279.043 40.86 279.233 40.66 279.367 40.4C279.5 40.1333 279.567 39.8133 279.567 39.44V36.7H280.527V42H279.617V40.57L279.767 40.95C279.593 41.3033 279.333 41.5767 278.987 41.77C278.64 41.9633 278.25 42.06 277.817 42.06ZM284.714 42.06C284.148 42.06 283.648 41.9433 283.214 41.71C282.788 41.4767 282.454 41.1567 282.214 40.75C281.981 40.3433 281.864 39.8767 281.864 39.35C281.864 38.8233 281.978 38.3567 282.204 37.95C282.438 37.5433 282.754 37.2267 283.154 37C283.561 36.7667 284.018 36.65 284.524 36.65C285.038 36.65 285.491 36.7633 285.884 36.99C286.278 37.2167 286.584 37.5367 286.804 37.95C287.031 38.3567 287.144 38.8333 287.144 39.38C287.144 39.42 287.141 39.4667 287.134 39.52C287.134 39.5733 287.131 39.6233 287.124 39.67H282.614V38.98H286.624L286.234 39.22C286.241 38.88 286.171 38.5767 286.024 38.31C285.878 38.0433 285.674 37.8367 285.414 37.69C285.161 37.5367 284.864 37.46 284.524 37.46C284.191 37.46 283.894 37.5367 283.634 37.69C283.374 37.8367 283.171 38.0467 283.024 38.32C282.878 38.5867 282.804 38.8933 282.804 39.24V39.4C282.804 39.7533 282.884 40.07 283.044 40.35C283.211 40.6233 283.441 40.8367 283.734 40.99C284.028 41.1433 284.364 41.22 284.744 41.22C285.058 41.22 285.341 41.1667 285.594 41.06C285.854 40.9533 286.081 40.7933 286.274 40.58L286.804 41.2C286.564 41.48 286.264 41.6933 285.904 41.84C285.551 41.9867 285.154 42.06 284.714 42.06ZM291.307 36.65C291.741 36.65 292.121 36.7333 292.447 36.9C292.781 37.0667 293.041 37.32 293.227 37.66C293.414 38 293.507 38.43 293.507 38.95V42H292.547V39.06C292.547 38.5467 292.421 38.16 292.167 37.9C291.921 37.64 291.571 37.51 291.117 37.51C290.777 37.51 290.481 37.5767 290.227 37.71C289.974 37.8433 289.777 38.04 289.637 38.3C289.504 38.56 289.437 38.8833 289.437 39.27V42H288.477V36.7H289.397V38.13L289.247 37.75C289.421 37.4033 289.687 37.1333 290.047 36.94C290.407 36.7467 290.827 36.65 291.307 36.65ZM297.104 42.06C296.571 42.06 296.157 41.9167 295.864 41.63C295.571 41.3433 295.424 40.9333 295.424 40.4V35.54H296.384V40.36C296.384 40.6467 296.454 40.8667 296.594 41.02C296.741 41.1733 296.947 41.25 297.214 41.25C297.514 41.25 297.764 41.1667 297.964 41L298.264 41.69C298.117 41.8167 297.941 41.91 297.734 41.97C297.534 42.03 297.324 42.06 297.104 42.06ZM294.524 37.49V36.7H297.904V37.49H294.524ZM302.715 42V40.88L302.665 40.67V38.76C302.665 38.3533 302.545 38.04 302.305 37.82C302.071 37.5933 301.718 37.48 301.245 37.48C300.931 37.48 300.625 37.5333 300.325 37.64C300.025 37.74 299.771 37.8767 299.565 38.05L299.165 37.33C299.438 37.11 299.765 36.9433 300.145 36.83C300.531 36.71 300.935 36.65 301.355 36.65C302.081 36.65 302.641 36.8267 303.035 37.18C303.428 37.5333 303.625 38.0733 303.625 38.8V42H302.715ZM300.975 42.06C300.581 42.06 300.235 41.9933 299.935 41.86C299.641 41.7267 299.415 41.5433 299.255 41.31C299.095 41.07 299.015 40.8 299.015 40.5C299.015 40.2133 299.081 39.9533 299.215 39.72C299.355 39.4867 299.578 39.3 299.885 39.16C300.198 39.02 300.618 38.95 301.145 38.95H302.825V39.64H301.185C300.705 39.64 300.381 39.72 300.215 39.88C300.048 40.04 299.965 40.2333 299.965 40.46C299.965 40.72 300.068 40.93 300.275 41.09C300.481 41.2433 300.768 41.32 301.135 41.32C301.495 41.32 301.808 41.24 302.075 41.08C302.348 40.92 302.545 40.6867 302.665 40.38L302.855 41.04C302.728 41.3533 302.505 41.6033 302.185 41.79C301.865 41.97 301.461 42.06 300.975 42.06Z" fill="white"/>
<rect x="38" y="9" width="107" height="2" fill="white"/>
<rect x="165" y="9" width="107" height="2" fill="white"/>
<circle cx="28" cy="10" r="10" fill="white"/>
<path d="M31.4456 6.25506C31.6184 6.08965 31.8483 5.99821 32.0869 6.00003C32.3255 6.00184 32.5541 6.09677 32.7244 6.26478C32.8947 6.4328 32.9934 6.66075 32.9997 6.90055C33.006 7.14034 32.9194 7.37323 32.7582 7.55005L27.8636 13.7044C27.7794 13.7955 27.6778 13.8686 27.5649 13.9194C27.452 13.9702 27.33 13.9975 27.2064 13.9998C27.0827 14.0021 26.9598 13.9793 26.8451 13.9328C26.7304 13.8863 26.6262 13.817 26.5387 13.729L23.2928 10.4656C23.2024 10.381 23.1299 10.2788 23.0796 10.1654C23.0294 10.0519 23.0023 9.92942 23.0001 9.80522C22.998 9.68102 23.0207 9.55765 23.067 9.44248C23.1132 9.3273 23.1821 9.22267 23.2695 9.13483C23.3568 9.047 23.4609 8.97775 23.5755 8.93123C23.69 8.88471 23.8127 8.86186 23.9363 8.86405C24.0598 8.86624 24.1816 8.89343 24.2945 8.94398C24.4073 8.99454 24.5089 9.06743 24.5931 9.15831L27.1619 11.7397L31.4223 6.28219C31.4299 6.27269 31.4369 6.26364 31.4456 6.25506Z" fill="#0D6EFD"/>
<circle cx="155" cy="10" r="10" fill="white"/>
<path d="M158.446 6.25506C158.618 6.08965 158.848 5.99821 159.087 6.00003C159.326 6.00184 159.554 6.09677 159.724 6.26478C159.895 6.4328 159.993 6.66075 160 6.90055C160.006 7.14034 159.919 7.37323 159.758 7.55005L154.864 13.7044C154.779 13.7955 154.678 13.8686 154.565 13.9194C154.452 13.9702 154.33 13.9975 154.206 13.9998C154.083 14.0021 153.96 13.9793 153.845 13.9328C153.73 13.8863 153.626 13.817 153.539 13.729L150.293 10.4656C150.202 10.381 150.13 10.2788 150.08 10.1654C150.029 10.0519 150.002 9.92942 150 9.80522C149.998 9.68102 150.021 9.55765 150.067 9.44248C150.113 9.3273 150.182 9.22267 150.269 9.13483C150.357 9.047 150.461 8.97775 150.575 8.93123C150.69 8.88471 150.813 8.86186 150.936 8.86405C151.06 8.86624 151.182 8.89343 151.294 8.94398C151.407 8.99454 151.509 9.06743 151.593 9.15831L154.162 11.7397L158.422 6.28219C158.43 6.27269 158.437 6.26364 158.446 6.25506Z" fill="#0D6EFD"/>
</svg>
