<svg width="20" height="20" viewBox="0 0 20 20" fill="none" xmlns="http://www.w3.org/2000/svg">
<circle cx="10" cy="10" r="10" fill="white"/>
<path d="M7.38078 14V12.95L10.0808 10.4C10.2941 10.2067 10.4508 10.0333 10.5508 9.88C10.6508 9.72667 10.7174 9.58667 10.7508 9.46C10.7908 9.33333 10.8108 9.21667 10.8108 9.11C10.8108 8.83 10.7141 8.61667 10.5208 8.47C10.3341 8.31667 10.0574 8.24 9.69078 8.24C9.39745 8.24 9.12411 8.29667 8.87078 8.41C8.62411 8.52333 8.41411 8.7 8.24078 8.94L7.06078 8.18C7.32745 7.78 7.70078 7.46333 8.18078 7.23C8.66078 6.99667 9.21411 6.88 9.84078 6.88C10.3608 6.88 10.8141 6.96667 11.2008 7.14C11.5941 7.30667 11.8974 7.54333 12.1108 7.85C12.3308 8.15667 12.4408 8.52333 12.4408 8.95C12.4408 9.17667 12.4108 9.40333 12.3508 9.63C12.2974 9.85 12.1841 10.0833 12.0108 10.33C11.8441 10.5767 11.5974 10.8533 11.2708 11.16L9.03078 13.27L8.72078 12.68H12.6708V14H7.38078Z" fill="#0D6EFD"/>
</svg>
