<svg width="20" height="20" viewBox="0 0 20 20" fill="none" xmlns="http://www.w3.org/2000/svg">
<circle cx="10" cy="10" r="10" fill="white"/>
<path d="M7.43984 14V13.13L10.2198 10.49C10.4532 10.27 10.6265 10.0767 10.7398 9.91C10.8532 9.74333 10.9265 9.59 10.9598 9.45C10.9998 9.30333 11.0198 9.16667 11.0198 9.04C11.0198 8.72 10.9098 8.47333 10.6898 8.3C10.4698 8.12 10.1465 8.03 9.71984 8.03C9.37984 8.03 9.06984 8.09 8.78984 8.21C8.51651 8.33 8.27984 8.51333 8.07984 8.76L7.16984 8.06C7.44318 7.69333 7.80984 7.41 8.26984 7.21C8.73651 7.00333 9.25651 6.9 9.82984 6.9C10.3365 6.9 10.7765 6.98333 11.1498 7.15C11.5298 7.31 11.8198 7.54 12.0198 7.84C12.2265 8.14 12.3298 8.49667 12.3298 8.91C12.3298 9.13667 12.2998 9.36333 12.2398 9.59C12.1798 9.81 12.0665 10.0433 11.8998 10.29C11.7332 10.5367 11.4898 10.8133 11.1698 11.12L8.77984 13.39L8.50984 12.9H12.5998V14H7.43984Z" fill="#0D6EFD" fill-opacity="0.5"/>
</svg>
