<svg width="308" height="46" viewBox="0 0 308 46" fill="none" xmlns="http://www.w3.org/2000/svg">
<circle cx="28" cy="10" r="10" fill="white"/>
<path d="M31.4456 6.25506C31.6184 6.08965 31.8483 5.99821 32.0869 6.00003C32.3255 6.00184 32.5541 6.09677 32.7244 6.26478C32.8947 6.4328 32.9934 6.66075 32.9997 6.90055C33.006 7.14034 32.9194 7.37323 32.7582 7.55005L27.8636 13.7044C27.7794 13.7955 27.6778 13.8686 27.5649 13.9194C27.452 13.9702 27.33 13.9975 27.2064 13.9998C27.0827 14.0021 26.9598 13.9793 26.8451 13.9328C26.7304 13.8863 26.6262 13.817 26.5387 13.729L23.2928 10.4656C23.2024 10.381 23.1299 10.2788 23.0796 10.1654C23.0294 10.0519 23.0023 9.92942 23.0001 9.80522C22.998 9.68102 23.0207 9.55765 23.067 9.44248C23.1132 9.3273 23.1821 9.22267 23.2695 9.13483C23.3568 9.047 23.4609 8.97775 23.5755 8.93123C23.69 8.88471 23.8127 8.86186 23.9363 8.86405C24.0598 8.86624 24.1816 8.89343 24.2945 8.94398C24.4073 8.99454 24.5089 9.06743 24.5931 9.15831L27.1619 11.7397L31.4223 6.28219C31.4299 6.27269 31.4369 6.26364 31.4456 6.25506Z" fill="#0D6EFD"/>
<circle cx="155" cy="10" r="10" fill="white"/>
<path d="M152.381 14V12.95L155.081 10.4C155.294 10.2067 155.451 10.0333 155.551 9.88C155.651 9.72667 155.717 9.58667 155.751 9.46C155.791 9.33333 155.811 9.21667 155.811 9.11C155.811 8.83 155.714 8.61667 155.521 8.47C155.334 8.31667 155.057 8.24 154.691 8.24C154.397 8.24 154.124 8.29667 153.871 8.41C153.624 8.52333 153.414 8.7 153.241 8.94L152.061 8.18C152.327 7.78 152.701 7.46333 153.181 7.23C153.661 6.99667 154.214 6.88 154.841 6.88C155.361 6.88 155.814 6.96667 156.201 7.14C156.594 7.30667 156.897 7.54333 157.111 7.85C157.331 8.15667 157.441 8.52333 157.441 8.95C157.441 9.17667 157.411 9.40333 157.351 9.63C157.297 9.85 157.184 10.0833 157.011 10.33C156.844 10.5767 156.597 10.8533 156.271 11.16L154.031 13.27L153.721 12.68H157.671V14H152.381Z" fill="#0D6EFD"/>
<circle cx="281" cy="10" r="10" fill="white"/>
<path d="M280.73 14.1C280.237 14.1 279.753 14.03 279.28 13.89C278.813 13.7433 278.42 13.5433 278.1 13.29L278.66 12.28C278.913 12.4867 279.22 12.6533 279.58 12.78C279.94 12.9067 280.317 12.97 280.71 12.97C281.177 12.97 281.54 12.8767 281.8 12.69C282.06 12.4967 282.19 12.2367 282.19 11.91C282.19 11.59 282.07 11.3367 281.83 11.15C281.59 10.9633 281.203 10.87 280.67 10.87H280.03V9.98L282.03 7.6L282.2 8.09H278.44V7H283.21V7.87L281.21 10.25L280.53 9.85H280.92C281.78 9.85 282.423 10.0433 282.85 10.43C283.283 10.81 283.5 11.3 283.5 11.9C283.5 12.2933 283.4 12.6567 283.2 12.99C283 13.3233 282.693 13.5933 282.28 13.8C281.873 14 281.357 14.1 280.73 14.1Z" fill="#0D6EFD" fill-opacity="0.5"/>
<path d="M14.2697 36V29H17.2197C17.9664 29 18.6231 29.1467 19.1897 29.44C19.7631 29.7333 20.2064 30.1433 20.5197 30.67C20.8397 31.1967 20.9997 31.8067 20.9997 32.5C20.9997 33.1933 20.8397 33.8033 20.5197 34.33C20.2064 34.8567 19.7631 35.2667 19.1897 35.56C18.6231 35.8533 17.9664 36 17.2197 36H14.2697ZM15.2697 35.13H17.1597C17.7397 35.13 18.2397 35.02 18.6597 34.8C19.0864 34.58 19.4164 34.2733 19.6497 33.88C19.8831 33.48 19.9997 33.02 19.9997 32.5C19.9997 31.9733 19.8831 31.5133 19.6497 31.12C19.4164 30.7267 19.0864 30.42 18.6597 30.2C18.2397 29.98 17.7397 29.87 17.1597 29.87H15.2697V35.13ZM25.6814 36V34.88L25.6314 34.67V32.76C25.6314 32.3533 25.5114 32.04 25.2714 31.82C25.0381 31.5933 24.6848 31.48 24.2114 31.48C23.8981 31.48 23.5914 31.5333 23.2914 31.64C22.9914 31.74 22.7381 31.8767 22.5314 32.05L22.1314 31.33C22.4048 31.11 22.7314 30.9433 23.1114 30.83C23.4981 30.71 23.9014 30.65 24.3214 30.65C25.0481 30.65 25.6081 30.8267 26.0014 31.18C26.3948 31.5333 26.5914 32.0733 26.5914 32.8V36H25.6814ZM23.9414 36.06C23.5481 36.06 23.2014 35.9933 22.9014 35.86C22.6081 35.7267 22.3814 35.5433 22.2214 35.31C22.0614 35.07 21.9814 34.8 21.9814 34.5C21.9814 34.2133 22.0481 33.9533 22.1814 33.72C22.3214 33.4867 22.5448 33.3 22.8514 33.16C23.1648 33.02 23.5848 32.95 24.1114 32.95H25.7914V33.64H24.1514C23.6714 33.64 23.3481 33.72 23.1814 33.88C23.0148 34.04 22.9314 34.2333 22.9314 34.46C22.9314 34.72 23.0348 34.93 23.2414 35.09C23.4481 35.2433 23.7348 35.32 24.1014 35.32C24.4614 35.32 24.7748 35.24 25.0414 35.08C25.3148 34.92 25.5114 34.6867 25.6314 34.38L25.8214 35.04C25.6948 35.3533 25.4714 35.6033 25.1514 35.79C24.8314 35.97 24.4281 36.06 23.9414 36.06ZM30.188 36.06C29.6547 36.06 29.2413 35.9167 28.948 35.63C28.6547 35.3433 28.508 34.9333 28.508 34.4V29.54H29.468V34.36C29.468 34.6467 29.538 34.8667 29.678 35.02C29.8247 35.1733 30.0313 35.25 30.298 35.25C30.598 35.25 30.848 35.1667 31.048 35L31.348 35.69C31.2013 35.8167 31.0247 35.91 30.818 35.97C30.618 36.03 30.408 36.06 30.188 36.06ZM27.608 31.49V30.7H30.988V31.49H27.608ZM34.6029 36.06C34.0695 36.06 33.5962 35.9433 33.1829 35.71C32.7695 35.4767 32.4429 35.1567 32.2029 34.75C31.9629 34.3367 31.8429 33.87 31.8429 33.35C31.8429 32.8233 31.9629 32.3567 32.2029 31.95C32.4429 31.5433 32.7695 31.2267 33.1829 31C33.5962 30.7667 34.0695 30.65 34.6029 30.65C35.1295 30.65 35.5995 30.7667 36.0129 31C36.4329 31.2267 36.7595 31.5433 36.9929 31.95C37.2329 32.35 37.3529 32.8167 37.3529 33.35C37.3529 33.8767 37.2329 34.3433 36.9929 34.75C36.7595 35.1567 36.4329 35.4767 36.0129 35.71C35.5995 35.9433 35.1295 36.06 34.6029 36.06ZM34.6029 35.22C34.9429 35.22 35.2462 35.1433 35.5129 34.99C35.7862 34.8367 35.9995 34.62 36.1529 34.34C36.3062 34.0533 36.3829 33.7233 36.3829 33.35C36.3829 32.97 36.3062 32.6433 36.1529 32.37C35.9995 32.09 35.7862 31.8733 35.5129 31.72C35.2462 31.5667 34.9429 31.49 34.6029 31.49C34.2629 31.49 33.9595 31.5667 33.6929 31.72C33.4262 31.8733 33.2129 32.09 33.0529 32.37C32.8929 32.6433 32.8129 32.97 32.8129 33.35C32.8129 33.7233 32.8929 34.0533 33.0529 34.34C33.2129 34.62 33.4262 34.8367 33.6929 34.99C33.9595 35.1433 34.2629 35.22 34.6029 35.22ZM40.2005 36.06C39.7605 36.06 39.3405 36 38.9405 35.88C38.5472 35.76 38.2372 35.6133 38.0105 35.44L38.4105 34.68C38.6372 34.8333 38.9172 34.9633 39.2505 35.07C39.5838 35.1767 39.9238 35.23 40.2705 35.23C40.7172 35.23 41.0372 35.1667 41.2305 35.04C41.4305 34.9133 41.5305 34.7367 41.5305 34.51C41.5305 34.3433 41.4705 34.2133 41.3505 34.12C41.2305 34.0267 41.0705 33.9567 40.8705 33.91C40.6772 33.8633 40.4605 33.8233 40.2205 33.79C39.9805 33.75 39.7405 33.7033 39.5005 33.65C39.2605 33.59 39.0405 33.51 38.8405 33.41C38.6405 33.3033 38.4805 33.16 38.3605 32.98C38.2405 32.7933 38.1805 32.5467 38.1805 32.24C38.1805 31.92 38.2705 31.64 38.4505 31.4C38.6305 31.16 38.8838 30.9767 39.2105 30.85C39.5438 30.7167 39.9372 30.65 40.3905 30.65C40.7372 30.65 41.0872 30.6933 41.4405 30.78C41.8005 30.86 42.0938 30.9767 42.3205 31.13L41.9105 31.89C41.6705 31.73 41.4205 31.62 41.1605 31.56C40.9005 31.5 40.6405 31.47 40.3805 31.47C39.9605 31.47 39.6472 31.54 39.4405 31.68C39.2338 31.8133 39.1305 31.9867 39.1305 32.2C39.1305 32.38 39.1905 32.52 39.3105 32.62C39.4372 32.7133 39.5972 32.7867 39.7905 32.84C39.9905 32.8933 40.2105 32.94 40.4505 32.98C40.6905 33.0133 40.9305 33.06 41.1705 33.12C41.4105 33.1733 41.6272 33.25 41.8205 33.35C42.0205 33.45 42.1805 33.59 42.3005 33.77C42.4272 33.95 42.4905 34.19 42.4905 34.49C42.4905 34.81 42.3972 35.0867 42.2105 35.32C42.0238 35.5533 41.7605 35.7367 41.4205 35.87C41.0805 35.9967 40.6738 36.06 40.2005 36.06ZM4.17117 44.06C3.73117 44.06 3.32784 43.96 2.96117 43.76C2.60117 43.5533 2.31117 43.25 2.09117 42.85C1.87784 42.45 1.77117 41.95 1.77117 41.35C1.77117 40.75 1.87451 40.25 2.08117 39.85C2.29451 39.45 2.58117 39.15 2.94117 38.95C3.30784 38.75 3.71784 38.65 4.17117 38.65C4.69117 38.65 5.15117 38.7633 5.55117 38.99C5.95117 39.2167 6.26784 39.5333 6.50117 39.94C6.73451 40.34 6.85117 40.81 6.85117 41.35C6.85117 41.89 6.73451 42.3633 6.50117 42.77C6.26784 43.1767 5.95117 43.4933 5.55117 43.72C5.15117 43.9467 4.69117 44.06 4.17117 44.06ZM1.36117 45.94V38.7H2.28117V40.13L2.22117 41.36L2.32117 42.59V45.94H1.36117ZM4.09117 43.22C4.43117 43.22 4.73451 43.1433 5.00117 42.99C5.27451 42.8367 5.48784 42.62 5.64117 42.34C5.80117 42.0533 5.88117 41.7233 5.88117 41.35C5.88117 40.97 5.80117 40.6433 5.64117 40.37C5.48784 40.09 5.27451 39.8733 5.00117 39.72C4.73451 39.5667 4.43117 39.49 4.09117 39.49C3.75784 39.49 3.45451 39.5667 3.18117 39.72C2.91451 39.8733 2.70117 40.09 2.54117 40.37C2.38784 40.6433 2.31117 40.97 2.31117 41.35C2.31117 41.7233 2.38784 42.0533 2.54117 42.34C2.70117 42.62 2.91451 42.8367 3.18117 42.99C3.45451 43.1433 3.75784 43.22 4.09117 43.22ZM10.5376 44.06C9.97091 44.06 9.47091 43.9433 9.03758 43.71C8.61091 43.4767 8.27758 43.1567 8.03758 42.75C7.80424 42.3433 7.68758 41.8767 7.68758 41.35C7.68758 40.8233 7.80091 40.3567 8.02758 39.95C8.26091 39.5433 8.57758 39.2267 8.97758 39C9.38424 38.7667 9.84091 38.65 10.3476 38.65C10.8609 38.65 11.3142 38.7633 11.7076 38.99C12.1009 39.2167 12.4076 39.5367 12.6276 39.95C12.8542 40.3567 12.9676 40.8333 12.9676 41.38C12.9676 41.42 12.9642 41.4667 12.9576 41.52C12.9576 41.5733 12.9542 41.6233 12.9476 41.67H8.43758V40.98H12.4476L12.0576 41.22C12.0642 40.88 11.9942 40.5767 11.8476 40.31C11.7009 40.0433 11.4976 39.8367 11.2376 39.69C10.9842 39.5367 10.6876 39.46 10.3476 39.46C10.0142 39.46 9.71758 39.5367 9.45758 39.69C9.19758 39.8367 8.99424 40.0467 8.84758 40.32C8.70091 40.5867 8.62758 40.8933 8.62758 41.24V41.4C8.62758 41.7533 8.70758 42.07 8.86758 42.35C9.03424 42.6233 9.26424 42.8367 9.55758 42.99C9.85091 43.1433 10.1876 43.22 10.5676 43.22C10.8809 43.22 11.1642 43.1667 11.4176 43.06C11.6776 42.9533 11.9042 42.7933 12.0976 42.58L12.6276 43.2C12.3876 43.48 12.0876 43.6933 11.7276 43.84C11.3742 43.9867 10.9776 44.06 10.5376 44.06ZM14.3006 44V38.7H15.2206V40.14L15.1306 39.78C15.2773 39.4133 15.524 39.1333 15.8706 38.94C16.2173 38.7467 16.644 38.65 17.1506 38.65V39.58C17.1106 39.5733 17.0706 39.57 17.0306 39.57C16.9973 39.57 16.964 39.57 16.9306 39.57C16.4173 39.57 16.0106 39.7233 15.7106 40.03C15.4106 40.3367 15.2606 40.78 15.2606 41.36V44H14.3006ZM19.9124 44.06C19.4724 44.06 19.0524 44 18.6524 43.88C18.2591 43.76 17.9491 43.6133 17.7224 43.44L18.1224 42.68C18.3491 42.8333 18.6291 42.9633 18.9624 43.07C19.2958 43.1767 19.6358 43.23 19.9824 43.23C20.4291 43.23 20.7491 43.1667 20.9424 43.04C21.1424 42.9133 21.2424 42.7367 21.2424 42.51C21.2424 42.3433 21.1824 42.2133 21.0624 42.12C20.9424 42.0267 20.7824 41.9567 20.5824 41.91C20.3891 41.8633 20.1724 41.8233 19.9324 41.79C19.6924 41.75 19.4524 41.7033 19.2124 41.65C18.9724 41.59 18.7524 41.51 18.5524 41.41C18.3524 41.3033 18.1924 41.16 18.0724 40.98C17.9524 40.7933 17.8924 40.5467 17.8924 40.24C17.8924 39.92 17.9824 39.64 18.1624 39.4C18.3424 39.16 18.5958 38.9767 18.9224 38.85C19.2558 38.7167 19.6491 38.65 20.1024 38.65C20.4491 38.65 20.7991 38.6933 21.1524 38.78C21.5124 38.86 21.8058 38.9767 22.0324 39.13L21.6224 39.89C21.3824 39.73 21.1324 39.62 20.8724 39.56C20.6124 39.5 20.3524 39.47 20.0924 39.47C19.6724 39.47 19.3591 39.54 19.1524 39.68C18.9458 39.8133 18.8424 39.9867 18.8424 40.2C18.8424 40.38 18.9024 40.52 19.0224 40.62C19.1491 40.7133 19.3091 40.7867 19.5024 40.84C19.7024 40.8933 19.9224 40.94 20.1624 40.98C20.4024 41.0133 20.6424 41.06 20.8824 41.12C21.1224 41.1733 21.3391 41.25 21.5324 41.35C21.7324 41.45 21.8924 41.59 22.0124 41.77C22.1391 41.95 22.2024 42.19 22.2024 42.49C22.2024 42.81 22.1091 43.0867 21.9224 43.32C21.7358 43.5533 21.4724 43.7367 21.1324 43.87C20.7924 43.9967 20.3858 44.06 19.9124 44.06ZM25.6722 44.06C25.1389 44.06 24.6655 43.9433 24.2522 43.71C23.8389 43.4767 23.5122 43.1567 23.2722 42.75C23.0322 42.3367 22.9122 41.87 22.9122 41.35C22.9122 40.8233 23.0322 40.3567 23.2722 39.95C23.5122 39.5433 23.8389 39.2267 24.2522 39C24.6655 38.7667 25.1389 38.65 25.6722 38.65C26.1989 38.65 26.6689 38.7667 27.0822 39C27.5022 39.2267 27.8289 39.5433 28.0622 39.95C28.3022 40.35 28.4222 40.8167 28.4222 41.35C28.4222 41.8767 28.3022 42.3433 28.0622 42.75C27.8289 43.1567 27.5022 43.4767 27.0822 43.71C26.6689 43.9433 26.1989 44.06 25.6722 44.06ZM25.6722 43.22C26.0122 43.22 26.3155 43.1433 26.5822 42.99C26.8555 42.8367 27.0689 42.62 27.2222 42.34C27.3755 42.0533 27.4522 41.7233 27.4522 41.35C27.4522 40.97 27.3755 40.6433 27.2222 40.37C27.0689 40.09 26.8555 39.8733 26.5822 39.72C26.3155 39.5667 26.0122 39.49 25.6722 39.49C25.3322 39.49 25.0289 39.5667 24.7622 39.72C24.4955 39.8733 24.2822 40.09 24.1222 40.37C23.9622 40.6433 23.8822 40.97 23.8822 41.35C23.8822 41.7233 23.9622 42.0533 24.1222 42.34C24.2822 42.62 24.4955 42.8367 24.7622 42.99C25.0289 43.1433 25.3322 43.22 25.6722 43.22ZM32.5798 38.65C33.0132 38.65 33.3932 38.7333 33.7198 38.9C34.0532 39.0667 34.3132 39.32 34.4998 39.66C34.6865 40 34.7798 40.43 34.7798 40.95V44H33.8198V41.06C33.8198 40.5467 33.6932 40.16 33.4398 39.9C33.1932 39.64 32.8432 39.51 32.3898 39.51C32.0498 39.51 31.7532 39.5767 31.4998 39.71C31.2465 39.8433 31.0498 40.04 30.9098 40.3C30.7765 40.56 30.7098 40.8833 30.7098 41.27V44H29.7498V38.7H30.6698V40.13L30.5198 39.75C30.6932 39.4033 30.9598 39.1333 31.3198 38.94C31.6798 38.7467 32.0998 38.65 32.5798 38.65ZM39.8465 44V42.88L39.7965 42.67V40.76C39.7965 40.3533 39.6765 40.04 39.4365 39.82C39.2032 39.5933 38.8498 39.48 38.3765 39.48C38.0632 39.48 37.7565 39.5333 37.4565 39.64C37.1565 39.74 36.9032 39.8767 36.6965 40.05L36.2965 39.33C36.5698 39.11 36.8965 38.9433 37.2765 38.83C37.6632 38.71 38.0665 38.65 38.4865 38.65C39.2132 38.65 39.7732 38.8267 40.1665 39.18C40.5598 39.5333 40.7565 40.0733 40.7565 40.8V44H39.8465ZM38.1065 44.06C37.7132 44.06 37.3665 43.9933 37.0665 43.86C36.7732 43.7267 36.5465 43.5433 36.3865 43.31C36.2265 43.07 36.1465 42.8 36.1465 42.5C36.1465 42.2133 36.2132 41.9533 36.3465 41.72C36.4865 41.4867 36.7098 41.3 37.0165 41.16C37.3298 41.02 37.7498 40.95 38.2765 40.95H39.9565V41.64H38.3165C37.8365 41.64 37.5132 41.72 37.3465 41.88C37.1798 42.04 37.0965 42.2333 37.0965 42.46C37.0965 42.72 37.1998 42.93 37.4065 43.09C37.6132 43.2433 37.8998 43.32 38.2665 43.32C38.6265 43.32 38.9398 43.24 39.2065 43.08C39.4798 42.92 39.6765 42.6867 39.7965 42.38L39.9865 43.04C39.8598 43.3533 39.6365 43.6033 39.3165 43.79C38.9965 43.97 38.5932 44.06 38.1065 44.06ZM42.533 44V36.58H43.493V44H42.533ZM47.686 44.06C47.1193 44.06 46.6193 43.9433 46.186 43.71C45.7593 43.4767 45.426 43.1567 45.186 42.75C44.9527 42.3433 44.836 41.8767 44.836 41.35C44.836 40.8233 44.9493 40.3567 45.176 39.95C45.4093 39.5433 45.726 39.2267 46.126 39C46.5327 38.7667 46.9893 38.65 47.496 38.65C48.0093 38.65 48.4627 38.7633 48.856 38.99C49.2493 39.2167 49.556 39.5367 49.776 39.95C50.0027 40.3567 50.116 40.8333 50.116 41.38C50.116 41.42 50.1127 41.4667 50.106 41.52C50.106 41.5733 50.1027 41.6233 50.096 41.67H45.586V40.98H49.596L49.206 41.22C49.2127 40.88 49.1427 40.5767 48.996 40.31C48.8493 40.0433 48.646 39.8367 48.386 39.69C48.1327 39.5367 47.836 39.46 47.496 39.46C47.1627 39.46 46.866 39.5367 46.606 39.69C46.346 39.8367 46.1427 40.0467 45.996 40.32C45.8493 40.5867 45.776 40.8933 45.776 41.24V41.4C45.776 41.7533 45.856 42.07 46.016 42.35C46.1827 42.6233 46.4127 42.8367 46.706 42.99C46.9993 43.1433 47.336 43.22 47.716 43.22C48.0293 43.22 48.3127 43.1667 48.566 43.06C48.826 42.9533 49.0527 42.7933 49.246 42.58L49.776 43.2C49.536 43.48 49.236 43.6933 48.876 43.84C48.5227 43.9867 48.126 44.06 47.686 44.06ZM52.9691 44.06C52.5291 44.06 52.1091 44 51.7091 43.88C51.3157 43.76 51.0057 43.6133 50.7791 43.44L51.1791 42.68C51.4057 42.8333 51.6857 42.9633 52.0191 43.07C52.3524 43.1767 52.6924 43.23 53.0391 43.23C53.4857 43.23 53.8057 43.1667 53.9991 43.04C54.1991 42.9133 54.2991 42.7367 54.2991 42.51C54.2991 42.3433 54.2391 42.2133 54.1191 42.12C53.9991 42.0267 53.8391 41.9567 53.6391 41.91C53.4457 41.8633 53.2291 41.8233 52.9891 41.79C52.7491 41.75 52.5091 41.7033 52.2691 41.65C52.0291 41.59 51.8091 41.51 51.6091 41.41C51.4091 41.3033 51.2491 41.16 51.1291 40.98C51.0091 40.7933 50.9491 40.5467 50.9491 40.24C50.9491 39.92 51.0391 39.64 51.2191 39.4C51.3991 39.16 51.6524 38.9767 51.9791 38.85C52.3124 38.7167 52.7057 38.65 53.1591 38.65C53.5057 38.65 53.8557 38.6933 54.2091 38.78C54.5691 38.86 54.8624 38.9767 55.0891 39.13L54.6791 39.89C54.4391 39.73 54.1891 39.62 53.9291 39.56C53.6691 39.5 53.4091 39.47 53.1491 39.47C52.7291 39.47 52.4157 39.54 52.2091 39.68C52.0024 39.8133 51.8991 39.9867 51.8991 40.2C51.8991 40.38 51.9591 40.52 52.0791 40.62C52.2057 40.7133 52.3657 40.7867 52.5591 40.84C52.7591 40.8933 52.9791 40.94 53.2191 40.98C53.4591 41.0133 53.6991 41.06 53.9391 41.12C54.1791 41.1733 54.3957 41.25 54.5891 41.35C54.7891 41.45 54.9491 41.59 55.0691 41.77C55.1957 41.95 55.2591 42.19 55.2591 42.49C55.2591 42.81 55.1657 43.0867 54.9791 43.32C54.7924 43.5533 54.5291 43.7367 54.1891 43.87C53.8491 43.9967 53.4424 44.06 52.9691 44.06Z" fill="white"/>
<path d="M139.424 35V28H142.154C142.767 28 143.291 28.0967 143.724 28.29C144.157 28.4833 144.491 28.7633 144.724 29.13C144.957 29.4967 145.074 29.9333 145.074 30.44C145.074 30.9467 144.957 31.3833 144.724 31.75C144.491 32.11 144.157 32.3867 143.724 32.58C143.291 32.7733 142.767 32.87 142.154 32.87H139.974L140.424 32.41V35H139.424ZM144.104 35L142.324 32.46H143.394L145.194 35H144.104ZM140.424 32.51L139.974 32.02H142.124C142.764 32.02 143.247 31.8833 143.574 31.61C143.907 31.33 144.074 30.94 144.074 30.44C144.074 29.94 143.907 29.5533 143.574 29.28C143.247 29.0067 142.764 28.87 142.124 28.87H139.974L140.424 28.37V32.51ZM149.791 35V33.88L149.741 33.67V31.76C149.741 31.3533 149.621 31.04 149.381 30.82C149.147 30.5933 148.794 30.48 148.321 30.48C148.007 30.48 147.701 30.5333 147.401 30.64C147.101 30.74 146.847 30.8767 146.641 31.05L146.241 30.33C146.514 30.11 146.841 29.9433 147.221 29.83C147.607 29.71 148.011 29.65 148.431 29.65C149.157 29.65 149.717 29.8267 150.111 30.18C150.504 30.5333 150.701 31.0733 150.701 31.8V35H149.791ZM148.051 35.06C147.657 35.06 147.311 34.9933 147.011 34.86C146.717 34.7267 146.491 34.5433 146.331 34.31C146.171 34.07 146.091 33.8 146.091 33.5C146.091 33.2133 146.157 32.9533 146.291 32.72C146.431 32.4867 146.654 32.3 146.961 32.16C147.274 32.02 147.694 31.95 148.221 31.95H149.901V32.64H148.261C147.781 32.64 147.457 32.72 147.291 32.88C147.124 33.04 147.041 33.2333 147.041 33.46C147.041 33.72 147.144 33.93 147.351 34.09C147.557 34.2433 147.844 34.32 148.211 34.32C148.571 34.32 148.884 34.24 149.151 34.08C149.424 33.92 149.621 33.6867 149.741 33.38L149.931 34.04C149.804 34.3533 149.581 34.6033 149.261 34.79C148.941 34.97 148.537 35.06 148.051 35.06ZM155.307 29.65C155.741 29.65 156.121 29.7333 156.447 29.9C156.781 30.0667 157.041 30.32 157.227 30.66C157.414 31 157.507 31.43 157.507 31.95V35H156.547V32.06C156.547 31.5467 156.421 31.16 156.167 30.9C155.921 30.64 155.571 30.51 155.117 30.51C154.777 30.51 154.481 30.5767 154.227 30.71C153.974 30.8433 153.777 31.04 153.637 31.3C153.504 31.56 153.437 31.8833 153.437 32.27V35H152.477V29.7H153.397V31.13L153.247 30.75C153.421 30.4033 153.687 30.1333 154.047 29.94C154.407 29.7467 154.827 29.65 155.307 29.65ZM161.604 37C161.117 37 160.644 36.93 160.184 36.79C159.731 36.6567 159.361 36.4633 159.074 36.21L159.534 35.47C159.781 35.6833 160.084 35.85 160.444 35.97C160.804 36.0967 161.181 36.16 161.574 36.16C162.201 36.16 162.661 36.0133 162.954 35.72C163.247 35.4267 163.394 34.98 163.394 34.38V33.26L163.494 32.21L163.444 31.15V29.7H164.354V34.28C164.354 35.2133 164.121 35.9 163.654 36.34C163.187 36.78 162.504 37 161.604 37ZM161.484 34.78C160.971 34.78 160.511 34.6733 160.104 34.46C159.704 34.24 159.384 33.9367 159.144 33.55C158.911 33.1633 158.794 32.7167 158.794 32.21C158.794 31.6967 158.911 31.25 159.144 30.87C159.384 30.4833 159.704 30.1833 160.104 29.97C160.511 29.7567 160.971 29.65 161.484 29.65C161.937 29.65 162.351 29.7433 162.724 29.93C163.097 30.11 163.394 30.39 163.614 30.77C163.841 31.15 163.954 31.63 163.954 32.21C163.954 32.7833 163.841 33.26 163.614 33.64C163.394 34.02 163.097 34.3067 162.724 34.5C162.351 34.6867 161.937 34.78 161.484 34.78ZM161.594 33.94C161.947 33.94 162.261 33.8667 162.534 33.72C162.807 33.5733 163.021 33.37 163.174 33.11C163.334 32.85 163.414 32.55 163.414 32.21C163.414 31.87 163.334 31.57 163.174 31.31C163.021 31.05 162.807 30.85 162.534 30.71C162.261 30.5633 161.947 30.49 161.594 30.49C161.241 30.49 160.924 30.5633 160.644 30.71C160.371 30.85 160.154 31.05 159.994 31.31C159.841 31.57 159.764 31.87 159.764 32.21C159.764 32.55 159.841 32.85 159.994 33.11C160.154 33.37 160.371 33.5733 160.644 33.72C160.924 33.8667 161.241 33.94 161.594 33.94ZM168.458 35.06C167.925 35.06 167.452 34.9433 167.038 34.71C166.625 34.4767 166.298 34.1567 166.058 33.75C165.818 33.3367 165.698 32.87 165.698 32.35C165.698 31.8233 165.818 31.3567 166.058 30.95C166.298 30.5433 166.625 30.2267 167.038 30C167.452 29.7667 167.925 29.65 168.458 29.65C168.985 29.65 169.455 29.7667 169.868 30C170.288 30.2267 170.615 30.5433 170.848 30.95C171.088 31.35 171.208 31.8167 171.208 32.35C171.208 32.8767 171.088 33.3433 170.848 33.75C170.615 34.1567 170.288 34.4767 169.868 34.71C169.455 34.9433 168.985 35.06 168.458 35.06ZM168.458 34.22C168.798 34.22 169.102 34.1433 169.368 33.99C169.642 33.8367 169.855 33.62 170.008 33.34C170.162 33.0533 170.238 32.7233 170.238 32.35C170.238 31.97 170.162 31.6433 170.008 31.37C169.855 31.09 169.642 30.8733 169.368 30.72C169.102 30.5667 168.798 30.49 168.458 30.49C168.118 30.49 167.815 30.5667 167.548 30.72C167.282 30.8733 167.068 31.09 166.908 31.37C166.748 31.6433 166.668 31.97 166.668 32.35C166.668 32.7233 166.748 33.0533 166.908 33.34C167.068 33.62 167.282 33.8367 167.548 33.99C167.815 34.1433 168.118 34.22 168.458 34.22ZM143.563 45.06C142.996 45.06 142.496 44.9433 142.063 44.71C141.636 44.4767 141.303 44.1567 141.063 43.75C140.83 43.3433 140.713 42.8767 140.713 42.35C140.713 41.8233 140.826 41.3567 141.053 40.95C141.286 40.5433 141.603 40.2267 142.003 40C142.41 39.7667 142.866 39.65 143.373 39.65C143.886 39.65 144.34 39.7633 144.733 39.99C145.126 40.2167 145.433 40.5367 145.653 40.95C145.88 41.3567 145.993 41.8333 145.993 42.38C145.993 42.42 145.99 42.4667 145.983 42.52C145.983 42.5733 145.98 42.6233 145.973 42.67H141.463V41.98H145.473L145.083 42.22C145.09 41.88 145.02 41.5767 144.873 41.31C144.726 41.0433 144.523 40.8367 144.263 40.69C144.01 40.5367 143.713 40.46 143.373 40.46C143.04 40.46 142.743 40.5367 142.483 40.69C142.223 40.8367 142.02 41.0467 141.873 41.32C141.726 41.5867 141.653 41.8933 141.653 42.24V42.4C141.653 42.7533 141.733 43.07 141.893 43.35C142.06 43.6233 142.29 43.8367 142.583 43.99C142.876 44.1433 143.213 44.22 143.593 44.22C143.906 44.22 144.19 44.1667 144.443 44.06C144.703 43.9533 144.93 43.7933 145.123 43.58L145.653 44.2C145.413 44.48 145.113 44.6933 144.753 44.84C144.4 44.9867 144.003 45.06 143.563 45.06ZM149.146 45.06C148.613 45.06 148.199 44.9167 147.906 44.63C147.613 44.3433 147.466 43.9333 147.466 43.4V38.54H148.426V43.36C148.426 43.6467 148.496 43.8667 148.636 44.02C148.783 44.1733 148.989 44.25 149.256 44.25C149.556 44.25 149.806 44.1667 150.006 44L150.306 44.69C150.159 44.8167 149.983 44.91 149.776 44.97C149.576 45.03 149.366 45.06 149.146 45.06ZM146.566 40.49V39.7H149.946V40.49H146.566ZM154.757 45V43.88L154.707 43.67V41.76C154.707 41.3533 154.587 41.04 154.347 40.82C154.113 40.5933 153.76 40.48 153.287 40.48C152.973 40.48 152.667 40.5333 152.367 40.64C152.067 40.74 151.813 40.8767 151.607 41.05L151.207 40.33C151.48 40.11 151.807 39.9433 152.187 39.83C152.573 39.71 152.977 39.65 153.397 39.65C154.123 39.65 154.683 39.8267 155.077 40.18C155.47 40.5333 155.667 41.0733 155.667 41.8V45H154.757ZM153.017 45.06C152.623 45.06 152.277 44.9933 151.977 44.86C151.683 44.7267 151.457 44.5433 151.297 44.31C151.137 44.07 151.057 43.8 151.057 43.5C151.057 43.2133 151.123 42.9533 151.257 42.72C151.397 42.4867 151.62 42.3 151.927 42.16C152.24 42.02 152.66 41.95 153.187 41.95H154.867V42.64H153.227C152.747 42.64 152.423 42.72 152.257 42.88C152.09 43.04 152.007 43.2333 152.007 43.46C152.007 43.72 152.11 43.93 152.317 44.09C152.523 44.2433 152.81 44.32 153.177 44.32C153.537 44.32 153.85 44.24 154.117 44.08C154.39 43.92 154.587 43.6867 154.707 43.38L154.897 44.04C154.77 44.3533 154.547 44.6033 154.227 44.79C153.907 44.97 153.503 45.06 153.017 45.06ZM157.443 45V39.7H158.363V41.14L158.273 40.78C158.42 40.4133 158.667 40.1333 159.013 39.94C159.36 39.7467 159.787 39.65 160.293 39.65V40.58C160.253 40.5733 160.213 40.57 160.173 40.57C160.14 40.57 160.107 40.57 160.073 40.57C159.56 40.57 159.153 40.7233 158.853 41.03C158.553 41.3367 158.403 41.78 158.403 42.36V45H157.443ZM161.476 45V39.7H162.436V45H161.476ZM161.956 38.68C161.77 38.68 161.613 38.62 161.486 38.5C161.366 38.38 161.306 38.2333 161.306 38.06C161.306 37.88 161.366 37.73 161.486 37.61C161.613 37.49 161.77 37.43 161.956 37.43C162.143 37.43 162.296 37.49 162.416 37.61C162.543 37.7233 162.606 37.8667 162.606 38.04C162.606 38.22 162.546 38.3733 162.426 38.5C162.306 38.62 162.15 38.68 161.956 38.68ZM166.539 45.06C166.006 45.06 165.533 44.9433 165.119 44.71C164.706 44.4767 164.379 44.1567 164.139 43.75C163.899 43.3367 163.779 42.87 163.779 42.35C163.779 41.8233 163.899 41.3567 164.139 40.95C164.379 40.5433 164.706 40.2267 165.119 40C165.533 39.7667 166.006 39.65 166.539 39.65C167.066 39.65 167.536 39.7667 167.949 40C168.369 40.2267 168.696 40.5433 168.929 40.95C169.169 41.35 169.289 41.8167 169.289 42.35C169.289 42.8767 169.169 43.3433 168.929 43.75C168.696 44.1567 168.369 44.4767 167.949 44.71C167.536 44.9433 167.066 45.06 166.539 45.06ZM166.539 44.22C166.879 44.22 167.183 44.1433 167.449 43.99C167.723 43.8367 167.936 43.62 168.089 43.34C168.243 43.0533 168.319 42.7233 168.319 42.35C168.319 41.97 168.243 41.6433 168.089 41.37C167.936 41.09 167.723 40.8733 167.449 40.72C167.183 40.5667 166.879 40.49 166.539 40.49C166.199 40.49 165.896 40.5667 165.629 40.72C165.363 40.8733 165.149 41.09 164.989 41.37C164.829 41.6433 164.749 41.97 164.749 42.35C164.749 42.7233 164.829 43.0533 164.989 43.34C165.149 43.62 165.363 43.8367 165.629 43.99C165.896 44.1433 166.199 44.22 166.539 44.22Z" fill="white"/>
<path d="M259.83 34V27H262.68C263.427 27 264.08 27.15 264.64 27.45C265.207 27.7433 265.647 28.1533 265.96 28.68C266.274 29.2067 266.43 29.8133 266.43 30.5C266.43 31.1867 266.274 31.7933 265.96 32.32C265.647 32.8467 265.207 33.26 264.64 33.56C264.08 33.8533 263.427 34 262.68 34H259.83ZM260.57 33.36H262.64C263.26 33.36 263.797 33.24 264.25 33C264.71 32.7533 265.067 32.4167 265.32 31.99C265.574 31.5567 265.7 31.06 265.7 30.5C265.7 29.9333 265.574 29.4367 265.32 29.01C265.067 28.5833 264.71 28.25 264.25 28.01C263.797 27.7633 263.26 27.64 262.64 27.64H260.57V33.36ZM271.232 34V32.84L271.202 32.65V30.71C271.202 30.2633 271.075 29.92 270.822 29.68C270.575 29.44 270.205 29.32 269.712 29.32C269.372 29.32 269.049 29.3767 268.742 29.49C268.435 29.6033 268.175 29.7533 267.962 29.94L267.642 29.41C267.909 29.1833 268.229 29.01 268.602 28.89C268.975 28.7633 269.369 28.7 269.782 28.7C270.462 28.7 270.985 28.87 271.352 29.21C271.725 29.5433 271.912 30.0533 271.912 30.74V34H271.232ZM269.422 34.05C269.029 34.05 268.685 33.9867 268.392 33.86C268.105 33.7267 267.885 33.5467 267.732 33.32C267.579 33.0867 267.502 32.82 267.502 32.52C267.502 32.2467 267.565 32 267.692 31.78C267.825 31.5533 268.039 31.3733 268.332 31.24C268.632 31.1 269.032 31.03 269.532 31.03H271.342V31.56H269.552C269.045 31.56 268.692 31.65 268.492 31.83C268.299 32.01 268.202 32.2333 268.202 32.5C268.202 32.8 268.319 33.04 268.552 33.22C268.785 33.4 269.112 33.49 269.532 33.49C269.932 33.49 270.275 33.4 270.562 33.22C270.855 33.0333 271.069 32.7667 271.202 32.42L271.362 32.91C271.229 33.2567 270.995 33.5333 270.662 33.74C270.335 33.9467 269.922 34.05 269.422 34.05ZM275.501 34.05C275.007 34.05 274.627 33.9167 274.361 33.65C274.094 33.3833 273.961 33.0067 273.961 32.52V27.59H274.671V32.48C274.671 32.7867 274.747 33.0233 274.901 33.19C275.061 33.3567 275.287 33.44 275.581 33.44C275.894 33.44 276.154 33.35 276.361 33.17L276.611 33.68C276.471 33.8067 276.301 33.9 276.101 33.96C275.907 34.02 275.707 34.05 275.501 34.05ZM273.021 29.34V28.75H276.271V29.34H273.021ZM279.858 34.05C279.351 34.05 278.894 33.9367 278.488 33.71C278.088 33.4767 277.771 33.16 277.538 32.76C277.304 32.3533 277.188 31.89 277.188 31.37C277.188 30.8433 277.304 30.38 277.538 29.98C277.771 29.58 278.088 29.2667 278.488 29.04C278.888 28.8133 279.344 28.7 279.858 28.7C280.378 28.7 280.838 28.8133 281.238 29.04C281.644 29.2667 281.961 29.58 282.188 29.98C282.421 30.38 282.538 30.8433 282.538 31.37C282.538 31.89 282.421 32.3533 282.188 32.76C281.961 33.16 281.644 33.4767 281.238 33.71C280.831 33.9367 280.371 34.05 279.858 34.05ZM279.858 33.42C280.238 33.42 280.574 33.3367 280.868 33.17C281.161 32.9967 281.391 32.7567 281.558 32.45C281.731 32.1367 281.818 31.7767 281.818 31.37C281.818 30.9567 281.731 30.5967 281.558 30.29C281.391 29.9833 281.161 29.7467 280.868 29.58C280.574 29.4067 280.241 29.32 279.868 29.32C279.494 29.32 279.161 29.4067 278.868 29.58C278.574 29.7467 278.341 29.9833 278.168 30.29C277.994 30.5967 277.908 30.9567 277.908 31.37C277.908 31.7767 277.994 32.1367 278.168 32.45C278.341 32.7567 278.574 32.9967 278.868 33.17C279.161 33.3367 279.491 33.42 279.858 33.42ZM285.397 34.05C284.964 34.05 284.554 33.99 284.167 33.87C283.78 33.7433 283.477 33.5867 283.257 33.4L283.577 32.84C283.79 33 284.064 33.14 284.397 33.26C284.73 33.3733 285.08 33.43 285.447 33.43C285.947 33.43 286.307 33.3533 286.527 33.2C286.747 33.04 286.857 32.83 286.857 32.57C286.857 32.3767 286.794 32.2267 286.667 32.12C286.547 32.0067 286.387 31.9233 286.187 31.87C285.987 31.81 285.764 31.76 285.517 31.72C285.27 31.68 285.024 31.6333 284.777 31.58C284.537 31.5267 284.317 31.45 284.117 31.35C283.917 31.2433 283.754 31.1 283.627 30.92C283.507 30.74 283.447 30.5 283.447 30.2C283.447 29.9133 283.527 29.6567 283.687 29.43C283.847 29.2033 284.08 29.0267 284.387 28.9C284.7 28.7667 285.08 28.7 285.527 28.7C285.867 28.7 286.207 28.7467 286.547 28.84C286.887 28.9267 287.167 29.0433 287.387 29.19L287.077 29.76C286.844 29.6 286.594 29.4867 286.327 29.42C286.06 29.3467 285.794 29.31 285.527 29.31C285.054 29.31 284.704 29.3933 284.477 29.56C284.257 29.72 284.147 29.9267 284.147 30.18C284.147 30.38 284.207 30.5367 284.327 30.65C284.454 30.7633 284.617 30.8533 284.817 30.92C285.024 30.98 285.247 31.03 285.487 31.07C285.734 31.11 285.977 31.16 286.217 31.22C286.464 31.2733 286.687 31.35 286.887 31.45C287.094 31.5433 287.257 31.68 287.377 31.86C287.504 32.0333 287.567 32.2633 287.567 32.55C287.567 32.8567 287.48 33.1233 287.307 33.35C287.14 33.57 286.894 33.7433 286.567 33.87C286.247 33.99 285.857 34.05 285.397 34.05ZM293.577 34.05C293.077 34.05 292.627 33.9367 292.227 33.71C291.834 33.4833 291.524 33.17 291.297 32.77C291.07 32.3633 290.957 31.8967 290.957 31.37C290.957 30.8367 291.07 30.37 291.297 29.97C291.524 29.57 291.834 29.26 292.227 29.04C292.627 28.8133 293.077 28.7 293.577 28.7C294.037 28.7 294.447 28.8033 294.807 29.01C295.174 29.2167 295.464 29.52 295.677 29.92C295.897 30.3133 296.007 30.7967 296.007 31.37C296.007 31.9367 295.9 32.42 295.687 32.82C295.474 33.22 295.184 33.5267 294.817 33.74C294.457 33.9467 294.044 34.05 293.577 34.05ZM293.627 33.42C294 33.42 294.334 33.3367 294.627 33.17C294.927 32.9967 295.16 32.7567 295.327 32.45C295.5 32.1367 295.587 31.7767 295.587 31.37C295.587 30.9567 295.5 30.5967 295.327 30.29C295.16 29.9833 294.927 29.7467 294.627 29.58C294.334 29.4067 294 29.32 293.627 29.32C293.26 29.32 292.93 29.4067 292.637 29.58C292.344 29.7467 292.11 29.9833 291.937 30.29C291.764 30.5967 291.677 30.9567 291.677 31.37C291.677 31.7767 291.764 32.1367 291.937 32.45C292.11 32.7567 292.344 32.9967 292.637 33.17C292.93 33.3367 293.26 33.42 293.627 33.42ZM295.607 34V32.42L295.677 31.36L295.577 30.3V26.58H296.287V34H295.607ZM300.494 34.05C299.948 34.05 299.468 33.9367 299.054 33.71C298.641 33.4767 298.318 33.16 298.084 32.76C297.851 32.3533 297.734 31.89 297.734 31.37C297.734 30.85 297.844 30.39 298.064 29.99C298.291 29.59 298.598 29.2767 298.984 29.05C299.378 28.8167 299.818 28.7 300.304 28.7C300.798 28.7 301.234 28.8133 301.614 29.04C302.001 29.26 302.304 29.5733 302.524 29.98C302.744 30.38 302.854 30.8433 302.854 31.37C302.854 31.4033 302.851 31.44 302.844 31.48C302.844 31.5133 302.844 31.55 302.844 31.59H298.274V31.06H302.464L302.184 31.27C302.184 30.89 302.101 30.5533 301.934 30.26C301.774 29.96 301.554 29.7267 301.274 29.56C300.994 29.3933 300.671 29.31 300.304 29.31C299.944 29.31 299.621 29.3933 299.334 29.56C299.048 29.7267 298.824 29.96 298.664 30.26C298.504 30.56 298.424 30.9033 298.424 31.29V31.4C298.424 31.8 298.511 32.1533 298.684 32.46C298.864 32.76 299.111 32.9967 299.424 33.17C299.744 33.3367 300.108 33.42 300.514 33.42C300.834 33.42 301.131 33.3633 301.404 33.25C301.684 33.1367 301.924 32.9633 302.124 32.73L302.524 33.19C302.291 33.47 301.998 33.6833 301.644 33.83C301.298 33.9767 300.914 34.05 300.494 34.05ZM258.836 42V34.58H259.546V42H258.836ZM264.811 42V40.84L264.781 40.65V38.71C264.781 38.2633 264.655 37.92 264.401 37.68C264.155 37.44 263.785 37.32 263.291 37.32C262.951 37.32 262.628 37.3767 262.321 37.49C262.015 37.6033 261.755 37.7533 261.541 37.94L261.221 37.41C261.488 37.1833 261.808 37.01 262.181 36.89C262.555 36.7633 262.948 36.7 263.361 36.7C264.041 36.7 264.565 36.87 264.931 37.21C265.305 37.5433 265.491 38.0533 265.491 38.74V42H264.811ZM263.001 42.05C262.608 42.05 262.265 41.9867 261.971 41.86C261.685 41.7267 261.465 41.5467 261.311 41.32C261.158 41.0867 261.081 40.82 261.081 40.52C261.081 40.2467 261.145 40 261.271 39.78C261.405 39.5533 261.618 39.3733 261.911 39.24C262.211 39.1 262.611 39.03 263.111 39.03H264.921V39.56H263.131C262.625 39.56 262.271 39.65 262.071 39.83C261.878 40.01 261.781 40.2333 261.781 40.5C261.781 40.8 261.898 41.04 262.131 41.22C262.365 41.4 262.691 41.49 263.111 41.49C263.511 41.49 263.855 41.4 264.141 41.22C264.435 41.0333 264.648 40.7667 264.781 40.42L264.941 40.91C264.808 41.2567 264.575 41.5333 264.241 41.74C263.915 41.9467 263.501 42.05 263.001 42.05ZM272.217 42.05C271.697 42.05 271.23 41.9367 270.817 41.71C270.41 41.4767 270.09 41.16 269.857 40.76C269.624 40.3533 269.507 39.89 269.507 39.37C269.507 38.8433 269.624 38.38 269.857 37.98C270.09 37.58 270.41 37.2667 270.817 37.04C271.23 36.8133 271.697 36.7 272.217 36.7C272.664 36.7 273.067 36.7867 273.427 36.96C273.787 37.1333 274.07 37.3933 274.277 37.74L273.747 38.1C273.567 37.8333 273.344 37.6367 273.077 37.51C272.81 37.3833 272.52 37.32 272.207 37.32C271.834 37.32 271.497 37.4067 271.197 37.58C270.897 37.7467 270.66 37.9833 270.487 38.29C270.314 38.5967 270.227 38.9567 270.227 39.37C270.227 39.7833 270.314 40.1433 270.487 40.45C270.66 40.7567 270.897 40.9967 271.197 41.17C271.497 41.3367 271.834 41.42 272.207 41.42C272.52 41.42 272.81 41.3567 273.077 41.23C273.344 41.1033 273.567 40.91 273.747 40.65L274.277 41.01C274.07 41.35 273.787 41.61 273.427 41.79C273.067 41.9633 272.664 42.05 272.217 42.05ZM277.842 42.05C277.395 42.05 277.005 41.9667 276.672 41.8C276.338 41.6333 276.078 41.3833 275.892 41.05C275.712 40.7167 275.622 40.3 275.622 39.8V36.75H276.332V39.72C276.332 40.28 276.468 40.7033 276.742 40.99C277.022 41.27 277.412 41.41 277.912 41.41C278.278 41.41 278.595 41.3367 278.862 41.19C279.135 41.0367 279.342 40.8167 279.482 40.53C279.628 40.2433 279.702 39.9 279.702 39.5V36.75H280.412V42H279.732V40.56L279.842 40.82C279.675 41.2067 279.415 41.51 279.062 41.73C278.715 41.9433 278.308 42.05 277.842 42.05ZM284.62 42.05C284.074 42.05 283.594 41.9367 283.18 41.71C282.767 41.4767 282.444 41.16 282.21 40.76C281.977 40.3533 281.86 39.89 281.86 39.37C281.86 38.85 281.97 38.39 282.19 37.99C282.417 37.59 282.724 37.2767 283.11 37.05C283.504 36.8167 283.944 36.7 284.43 36.7C284.924 36.7 285.36 36.8133 285.74 37.04C286.127 37.26 286.43 37.5733 286.65 37.98C286.87 38.38 286.98 38.8433 286.98 39.37C286.98 39.4033 286.977 39.44 286.97 39.48C286.97 39.5133 286.97 39.55 286.97 39.59H282.4V39.06H286.59L286.31 39.27C286.31 38.89 286.227 38.5533 286.06 38.26C285.9 37.96 285.68 37.7267 285.4 37.56C285.12 37.3933 284.797 37.31 284.43 37.31C284.07 37.31 283.747 37.3933 283.46 37.56C283.174 37.7267 282.95 37.96 282.79 38.26C282.63 38.56 282.55 38.9033 282.55 39.29V39.4C282.55 39.8 282.637 40.1533 282.81 40.46C282.99 40.76 283.237 40.9967 283.55 41.17C283.87 41.3367 284.234 41.42 284.64 41.42C284.96 41.42 285.257 41.3633 285.53 41.25C285.81 41.1367 286.05 40.9633 286.25 40.73L286.65 41.19C286.417 41.47 286.124 41.6833 285.77 41.83C285.424 41.9767 285.04 42.05 284.62 42.05ZM291.106 36.7C291.532 36.7 291.906 36.7833 292.226 36.95C292.552 37.11 292.806 37.3567 292.986 37.69C293.172 38.0233 293.266 38.4433 293.266 38.95V42H292.556V39.02C292.556 38.4667 292.416 38.05 292.136 37.77C291.862 37.4833 291.476 37.34 290.976 37.34C290.602 37.34 290.276 37.4167 289.996 37.57C289.722 37.7167 289.509 37.9333 289.356 38.22C289.209 38.5 289.136 38.84 289.136 39.24V42H288.426V36.75H289.106V38.19L288.996 37.92C289.162 37.54 289.429 37.2433 289.796 37.03C290.162 36.81 290.599 36.7 291.106 36.7ZM296.843 42.05C296.35 42.05 295.97 41.9167 295.703 41.65C295.437 41.3833 295.303 41.0067 295.303 40.52V35.59H296.013V40.48C296.013 40.7867 296.09 41.0233 296.243 41.19C296.403 41.3567 296.63 41.44 296.923 41.44C297.237 41.44 297.497 41.35 297.703 41.17L297.953 41.68C297.813 41.8067 297.643 41.9 297.443 41.96C297.25 42.02 297.05 42.05 296.843 42.05ZM294.363 37.34V36.75H297.613V37.34H294.363ZM302.536 42V40.84L302.506 40.65V38.71C302.506 38.2633 302.379 37.92 302.126 37.68C301.879 37.44 301.509 37.32 301.016 37.32C300.676 37.32 300.353 37.3767 300.046 37.49C299.739 37.6033 299.479 37.7533 299.266 37.94L298.946 37.41C299.213 37.1833 299.533 37.01 299.906 36.89C300.279 36.7633 300.673 36.7 301.086 36.7C301.766 36.7 302.289 36.87 302.656 37.21C303.029 37.5433 303.216 38.0533 303.216 38.74V42H302.536ZM300.726 42.05C300.333 42.05 299.989 41.9867 299.696 41.86C299.409 41.7267 299.189 41.5467 299.036 41.32C298.883 41.0867 298.806 40.82 298.806 40.52C298.806 40.2467 298.869 40 298.996 39.78C299.129 39.5533 299.343 39.3733 299.636 39.24C299.936 39.1 300.336 39.03 300.836 39.03H302.646V39.56H300.856C300.349 39.56 299.996 39.65 299.796 39.83C299.603 40.01 299.506 40.2333 299.506 40.5C299.506 40.8 299.623 41.04 299.856 41.22C300.089 41.4 300.416 41.49 300.836 41.49C301.236 41.49 301.579 41.4 301.866 41.22C302.159 41.0333 302.373 40.7667 302.506 40.42L302.666 40.91C302.533 41.2567 302.299 41.5333 301.966 41.74C301.639 41.9467 301.226 42.05 300.726 42.05Z" fill="white" fill-opacity="0.5"/>
<rect x="38" y="9" width="107" height="2" fill="white"/>
<rect x="165" y="9" width="107" height="2" fill="white" fill-opacity="0.3"/>
</svg>
