<svg width="20" height="20" viewBox="0 0 20 20" fill="none" xmlns="http://www.w3.org/2000/svg">
<circle cx="10" cy="10" r="10" fill="white"/>
<path d="M9.70102 14.12C9.21435 14.12 8.73102 14.0567 8.25102 13.93C7.77102 13.7967 7.36435 13.61 7.03102 13.37L7.66102 12.13C7.92768 12.3233 8.23768 12.4767 8.59102 12.59C8.94435 12.7033 9.30102 12.76 9.66102 12.76C10.0677 12.76 10.3877 12.68 10.621 12.52C10.8543 12.36 10.971 12.14 10.971 11.86C10.971 11.5933 10.8677 11.3833 10.661 11.23C10.4543 11.0767 10.121 11 9.66102 11H8.92102V9.93L10.871 7.72L11.051 8.3H7.38102V7H12.281V8.05L10.341 10.26L9.52102 9.79H9.99102C10.851 9.79 11.501 9.98333 11.941 10.37C12.381 10.7567 12.601 11.2533 12.601 11.86C12.601 12.2533 12.4977 12.6233 12.291 12.97C12.0843 13.31 11.7677 13.5867 11.341 13.8C10.9143 14.0133 10.3677 14.12 9.70102 14.12Z" fill="#0D6EFD"/>
</svg>
