<svg width="20" height="20" viewBox="0 0 20 20" fill="none" xmlns="http://www.w3.org/2000/svg">
<circle cx="10" cy="10" r="10" fill="white"/>
<path d="M9.72984 14.1C9.23651 14.1 8.75318 14.03 8.27984 13.89C7.81318 13.7433 7.41984 13.5433 7.09984 13.29L7.65984 12.28C7.91318 12.4867 8.21984 12.6533 8.57984 12.78C8.93984 12.9067 9.31651 12.97 9.70984 12.97C10.1765 12.97 10.5398 12.8767 10.7998 12.69C11.0598 12.4967 11.1898 12.2367 11.1898 11.91C11.1898 11.59 11.0698 11.3367 10.8298 11.15C10.5898 10.9633 10.2032 10.87 9.66984 10.87H9.02984V9.98L11.0298 7.6L11.1998 8.09H7.43984V7H12.2098V7.87L10.2098 10.25L9.52984 9.85H9.91984C10.7798 9.85 11.4232 10.0433 11.8498 10.43C12.2832 10.81 12.4998 11.3 12.4998 11.9C12.4998 12.2933 12.3998 12.6567 12.1998 12.99C11.9998 13.3233 11.6932 13.5933 11.2798 13.8C10.8732 14 10.3565 14.1 9.72984 14.1Z" fill="#0D6EFD" fill-opacity="0.5"/>
</svg>
